<svg width="143" height="30" viewBox="0 0 143 30" xmlns="http://www.w3.org/2000/svg"><title>coinbase</title><g fill="none" fill-rule="evenodd"><path d="M8.788 29.514C4.19 29.514 0 26.18 0 19.073 0 11.96 4.191 8.664 8.788 8.664c2.04 0 3.718.445 5.214 1.371l-1.57 3.63c-.8-.592-1.786-.851-2.916-.851-2.442 0-4.376 2.075-4.376 6.222 0 4.146 2.006 6.218 4.376 6.218 1.13 0 2.115-.294 2.917-.886l1.57 3.777c-1.497.926-3.175 1.37-5.215 1.37M24.803 29.514c-5.725 0-8.898-4.479-8.898-10.441 0-5.962 3.173-10.409 8.898-10.409 5.72 0 8.895 4.447 8.895 10.409 0 5.962-3.175 10.441-8.895 10.441zm0-16.885c-2.627 0-3.94 2.404-3.94 6.407 0 3.998 1.313 6.366 3.94 6.366 2.623 0 3.937-2.368 3.937-6.366 0-4.003-1.314-6.407-3.937-6.407zM40.015 5.924c-1.57 0-2.843-1.222-2.843-2.74 0-1.517 1.274-2.702 2.843-2.702 1.567 0 2.845 1.185 2.845 2.701 0 1.52-1.278 2.741-2.845 2.741zM37.537 9.11h4.958v19.96h-4.958V9.108zM58.396 29.07V15.924c0-1.997-1.203-3.221-3.465-3.221-1.168 0-2.294.223-2.951.483v15.886h-4.96V10.108c2.077-.851 4.594-1.444 7.838-1.444 5.834 0 8.534 2.445 8.534 6.74V29.07h-4.996M74.816 29.514c-2.737 0-5.36-.666-6.965-1.443V0h4.957v9.516c.877-.407 2.295-.667 3.463-.667 5.104 0 8.569 3.595 8.569 9.704 0 7.48-3.753 10.961-10.024 10.961zm.51-16.812c-.913 0-1.897.223-2.518.516v11.924c.475.227 1.388.412 2.295.412 2.846 0 4.743-2.187 4.743-6.596 0-3.925-1.714-6.256-4.52-6.256z" fill="#0078AA"/><path d="M96.553 29.514c-5.906 0-8.858-2.37-8.858-6.443 0-5.444 5.578-6.518 11.521-6.852v-1.037c0-2.071-1.423-2.85-3.683-2.85-1.862 0-4.12.593-5.507 1.185l-1.24-3.409c1.643-.703 4.45-1.444 7.293-1.444 5.03 0 7.841 2 7.841 7.11v12.297c-1.46.777-4.415 1.443-7.367 1.443m2.663-10.07c-3.647.185-6.854.519-6.854 3.516 0 1.89 1.458 2.962 4.045 2.962 1.057 0 2.299-.186 2.81-.406v-6.073" fill="#353C44"/><path d="M103.918 29.516H87.695v-6.445 6.445h16.223v-1.445 1.445m0-13.944V8.664h-7.84 7.84v6.908" fill="#FFF"/><path d="M103.918 29.516H87.695v-6.411c.001.441.038.862.11 1.262.584 3.276 3.5 5.147 8.748 5.147 2.951 0 5.906-.666 7.365-1.443v1.445" fill="#FFF"/><path d="M96.553 29.514c-5.249 0-8.164-1.871-8.749-5.147.585 3.276 3.5 5.147 8.75 5.147 2.95 0 5.905-.666 7.364-1.443-1.46.777-4.414 1.443-7.365 1.443" fill="#353C44"/><path d="M96.407 25.922a8.43 8.43 0 0 1-.75-.033c-2.117-.192-3.295-1.23-3.295-2.93 0-.356.046-.675.132-.961.639-2.113 3.51-2.391 6.722-2.555v6.073c-.51.22-1.75.406-2.809.406" fill="#FFF"/><path d="M92.494 21.998c.639-2.114 3.51-2.392 6.722-2.556v.001c-3.213.164-6.083.442-6.722 2.555" fill="#353C44"/><path d="M87.695 23.036V8.664h8.296c-2.811.015-5.58.748-7.204 1.444l1.24 3.41c1.386-.593 3.644-1.186 5.506-1.186 1.669 0 2.881.424 3.401 1.48.184.374.282.827.282 1.37v1.037c-5.93.333-11.498 1.403-11.521 6.817" fill="#FFF"/><path d="M98.934 13.812c-.52-1.056-1.732-1.48-3.401-1.48-1.862 0-4.12.593-5.507 1.185 1.387-.593 3.645-1.186 5.507-1.186 1.669 0 2.881.425 3.401 1.48m-9.776-2.68l-.371-1.023.371 1.023" fill="#353C44"/><path d="M103.918 15.566c-.075-4.925-2.842-6.877-7.745-6.902h7.745v6.902" fill="#FFF"/><path d="M96.407 25.922c1.058 0 2.299-.186 2.81-.406v-6.073 6.073c-.511.22-1.753.406-2.81.406m-.75-.033c-2.117-.192-3.295-1.23-3.295-2.929 0 1.698 1.178 2.737 3.295 2.93m-7.853-1.523a7.365 7.365 0 0 1-.11-1.262v-.034c0 .454.037.886.11 1.296m-.11-1.296v-.035c.024-5.414 5.592-6.484 11.522-6.817v-1.037c0-.543-.098-.996-.282-1.37.185.374.282.828.282 1.37v1.037c-5.943.334-11.521 1.408-11.521 6.852m16.223-7.493c-.071-4.965-2.873-6.914-7.84-6.914h.095c4.903.025 7.67 1.977 7.745 6.902v.012m-13.892-2.06l-.868-2.387.868 2.386m-1.239-3.409c1.624-.696 4.393-1.429 7.204-1.444h.088c-2.842 0-5.65.741-7.292 1.444" fill="#353C44"/><path d="M96.553 29.514c-5.249 0-8.164-1.871-8.749-5.147a7.355 7.355 0 0 1-.11-1.296c0-5.444 5.58-6.518 11.522-6.852v-1.037c0-.542-.097-.996-.282-1.37-.52-1.056-1.732-1.481-3.401-1.481-1.862 0-4.12.593-5.507 1.186l-1.239-3.409c1.642-.703 4.45-1.444 7.292-1.444 4.966 0 7.768 1.949 7.84 6.914V28.07c-1.46.777-4.415 1.443-7.366 1.443m-.146-3.592c1.057 0 2.299-.186 2.81-.406v-6.074c-3.214.164-6.084.442-6.723 2.556a3.321 3.321 0 0 0-.132.962c0 1.698 1.178 2.737 3.295 2.93.239.02.49.032.75.032M113.59 29.514c-2.336 0-4.448-.517-6.346-1.443l1.606-3.852c1.313.741 3.137 1.297 4.593 1.297 1.788 0 2.955-.852 2.955-2.185 0-1.482-1.277-2.112-3.028-2.742-2.478-.927-5.615-2.109-5.615-6.037 0-3.518 2.627-5.888 7.22-5.888 2.186 0 4.338.481 6.053 1.444l-1.532 3.443c-1.092-.664-2.477-1.145-3.9-1.145-1.752 0-2.773.887-2.773 2.071 0 1.631 1.606 2.261 3.065 2.78 2.586.963 5.687 2.112 5.687 6.074 0 3.738-2.736 6.183-7.986 6.183M142.037 19.443l-12.653 1.74c.439 2.925 2.554 4.37 5.436 4.37 1.967 0 4.083-.518 5.469-1.26l1.422 3.778c-1.641.851-4.414 1.443-7.256 1.443-6.49 0-9.916-4.297-9.916-10.441 0-6.111 3.389-10.409 9.113-10.409 5.433 0 8.457 3.631 8.457 9.075 0 .556 0 1.112-.072 1.704zm-8.494-7.111c-2.59 0-4.414 1.927-4.487 5.666l8.241-1.15c0-2.997-1.459-4.516-3.754-4.516z" fill="#0078AA"/></g></svg>