<?xml version="1.0" encoding="UTF-8" standalone="no"?>
<svg width="114px" height="95px" viewBox="0 0 114 95" version="1.1" xmlns="http://www.w3.org/2000/svg" xmlns:xlink="http://www.w3.org/1999/xlink">
    <!-- Generator: Sketch 41.2 (35397) - http://www.bohemiancoding.com/sketch -->
    <title>vector_v-trans</title>
    <desc>Created with Sketch.</desc>
    <defs></defs>
    <g id="Page-1" stroke="none" stroke-width="1" fill="none" fill-rule="evenodd">
        <g id="vector_v-trans" transform="translate(0.642598, 0.132812)">
            <path d="M16.9834559,76.517058 L16.9834559,69.320906 C16.9834559,68.3759281 17.5746559,67.6158475 18.5533156,67.6158475 L18.8246552,67.6158475 C19.8030794,67.6158475 20.3914529,68.3763992 20.3914529,69.320906 L20.3914529,84.4706998 C20.3914529,88.1651108 18.5660346,91.1043875 15.3858027,92.9771488 C13.9111003,93.8448702 12.2816496,94.2900368 10.5721159,94.2900368 L9.89635786,94.2900368 C6.20124023,94.2900368 3.26526107,92.4634408 1.38967325,89.2848577 C0.519360936,87.8092131 0.0772564113,86.1821177 0.0772564113,84.4706998 L0.0772564113,83.7954128 C0.0772564113,80.0998241 1.90361682,77.1621962 5.08149335,75.2861373 C6.55737345,74.4148828 8.18446884,73.9732494 9.89635786,73.9732494 L10.5721159,73.9732494 C13.0728212,73.9732494 15.194546,74.9424876 16.9834559,76.517058 Z M3.48478233,84.1324674 C3.48478233,86.8011112 4.77835615,88.8074225 7.11677582,90.086864 C8.0622247,90.6043407 9.08893414,90.8822753 10.1676974,90.8822753 C12.7871138,90.8822753 14.7298299,89.6466438 16.0700402,87.4269352 C16.6932733,86.3941018 16.9834559,85.2646978 16.9834559,84.0634549 C16.9834559,81.7500022 15.888205,79.9448402 14.0241585,78.6039233 C12.8938124,77.7910822 11.621437,77.3833662 10.2338836,77.3833662 C7.37892943,77.3833662 5.32433286,78.8255644 4.09105673,81.3879805 C3.67486137,82.2542887 3.48478233,83.1742995 3.48478233,84.1324674 Z M32.2140392,73.9732494 L32.6862926,73.9732494 C36.6348489,73.9732494 39.6374853,75.8886431 41.540631,79.3352683 C42.3016538,80.7141068 42.7086632,82.2187225 42.7086632,83.7954128 L42.7086632,84.4706998 C42.7086632,88.1648752 40.8870135,91.1086272 37.7015998,92.9776199 C36.2268974,93.8425149 34.5979177,94.2900368 32.8888551,94.2900368 L32.2140392,94.2900368 C28.5189216,94.2900368 25.5824713,92.4634408 23.7073546,89.2848577 C22.8370423,87.8092131 22.3939956,86.1821177 22.3939956,84.4706998 L22.3939956,83.7954128 C22.3939956,80.099353 24.2271866,77.1713821 27.3972904,75.2870794 C28.8712862,74.4111142 30.501208,73.9732494 32.2140392,73.9732494 Z M25.8015215,84.1324674 C25.8015215,86.7229126 27.0729548,88.6284137 29.2608658,89.9681529 C30.2882818,90.5975101 31.4195701,90.8822753 32.6201064,90.8822753 C35.1796961,90.8822753 37.0715361,89.5844618 38.3884281,87.4241087 C39.016372,86.3941018 39.3004306,85.2628135 39.3004306,84.0634549 C39.3004306,81.6548449 38.1401712,79.8145878 36.1569426,78.4809725 C35.0699355,77.7496275 33.8599776,77.3833662 32.5510939,77.3833662 C29.6961397,77.3833662 27.6415431,78.8255644 26.4087381,81.3879805 C25.9916006,82.2542887 25.8015215,83.1742995 25.8015215,84.1324674 Z M56.8760287,77.6556479 C56.361614,77.4146927 55.3982643,77.3346099 54.8421594,77.3134115 C51.994978,77.2062417 49.9349641,78.8095478 48.7264194,81.3213233 C48.3092819,82.1876315 48.1187318,83.1048158 48.1187318,84.0634549 C48.1187318,86.9824753 49.651141,89.0260016 52.2566606,90.2717612 C53.208469,90.7265848 54.4372699,90.8132627 55.477405,90.8132627 C56.3924695,90.8132627 57.6851012,90.2524471 58.4970001,89.8668717 L58.6378517,89.8002145 L59.2676799,89.8002145 L59.3371636,89.8143467 C60.1123186,89.9754546 60.6973946,90.4667866 60.6973946,91.300826 L60.6973946,91.6381162 C60.6973946,93.7127335 56.9054709,94.1880489 55.458562,94.2888591 C50.3525727,94.6424014 46.5337977,91.8380879 45.0779383,86.9676364 C44.8249707,86.1222911 44.7112059,85.2821276 44.7112059,84.400745 L44.7112059,83.7264002 C44.7112059,80.0308115 46.544868,77.1037828 49.7145007,75.2206578 C51.1884965,74.3453991 52.8184183,73.9058855 54.5307784,73.9058855 L55.2060654,73.9058855 C57.0222977,73.9058855 58.6953229,74.4217134 60.1949924,75.4460675 L60.3184142,75.5313322 L60.3961417,75.6597003 C60.5579562,75.9282134 60.6973946,76.2384168 60.6973946,76.5580416 L60.6973946,76.8953318 C60.6973946,77.765173 60.0466035,78.2329512 59.2608493,78.384402 L59.1958409,78.3959434 L58.994456,78.3959434 C58.4856943,78.3959434 57.3299101,77.8692808 56.8760287,77.6556479 Z M67.9295839,79.9632121 C69.2530711,78.6378407 70.58174,77.3148247 71.9250123,76.0111227 C72.2995175,75.6476879 73.7169842,74.1084481 74.2749733,74.1084481 L74.8854874,74.1084481 L74.9549711,74.1225803 C75.7322459,74.2841593 76.314731,74.7764334 76.314731,75.6118861 L76.314731,75.9489408 C76.314731,76.5189423 75.6472168,77.1810392 75.2790711,77.5710898 C74.4961434,78.4008897 73.6717609,79.2038382 72.8704612,80.0166792 L68.7534953,84.1960627 C70.5261531,85.9727246 72.2971621,87.7512708 74.0554521,89.5415939 C74.5418377,90.0366945 75.0284589,90.5325016 75.5073073,91.0349038 C75.676659,91.2129704 75.9265647,91.4346115 76.068594,91.6816907 C76.220987,91.9127533 76.314731,92.1734937 76.314731,92.4518995 L76.314731,92.8042641 L76.2949458,92.8852891 C76.1034536,93.662564 75.6100018,94.2900368 74.7484044,94.2900368 L74.4773003,94.2900368 C73.9134227,94.2900368 73.276764,93.6519648 72.8902464,93.2878233 C72.0948351,92.5373997 71.3260396,91.7483479 70.5459383,90.9819078 L67.9295839,88.4136032 L67.9295839,92.5185567 C67.9295839,93.4640056 67.3376773,94.2238506 66.3599598,94.2238506 L66.0914466,94.2238506 C65.1127869,94.2238506 64.5218225,93.4640056 64.5218225,92.5185567 L64.5218225,69.3870921 C64.5218225,68.4411721 65.113258,67.6848601 66.0914466,67.6848601 L66.3599598,67.6848601 C67.3376773,67.6848601 67.9295839,68.4411721 67.9295839,69.3870921 L67.9295839,79.9632121 Z M110.403651,74.1084481 L110.741884,74.1084481 C111.764118,74.1084481 112.446236,74.7971607 112.446236,75.813271 C112.446236,77.2241426 111.097546,77.5852221 109.930456,77.5852221 C108.399931,77.5852221 106.93889,78.511828 105.883916,79.5510209 C104.568201,80.8478923 103.992311,82.5091407 103.992311,84.33503 L103.992311,92.5852139 C103.992311,93.5311338 103.402054,94.2900368 102.422216,94.2900368 L102.153468,94.2900368 C101.174101,94.2900368 100.583843,93.5311338 100.583843,92.5852139 L100.583843,83.8615989 C100.583843,80.5115442 102.214707,77.7771855 104.93305,75.8592008 C106.556847,74.7133092 108.415948,74.1084481 110.403651,74.1084481 Z M86.1821177,90.4580717 C87.4222244,90.8909902 88.8363936,90.8292793 90.108769,90.6076382 C90.7593245,90.3311168 92.4238705,89.6051891 93.0360333,89.7114167 L93.1316617,89.7274333 L93.2195173,89.7707722 C93.5930803,89.9519008 93.9501557,90.208166 94.1407058,90.5883241 C94.5868144,91.4803059 94.372475,92.3762918 93.4965098,92.8824626 L93.2049139,93.0508722 C89.9721571,94.916803 86.5340112,94.6581824 83.3118536,92.9154379 C81.7712006,92.0828117 80.5925693,90.846238 79.7231991,89.3392669 L79.5196944,88.9869023 C77.444606,85.393066 77.7246605,81.6124481 80.0649645,78.194794 C80.8730948,77.0135718 81.929011,76.1008627 83.1637003,75.387183 L83.6307718,75.1177277 C86.6750984,73.3603799 89.9377686,73.4805042 93.0645334,75.0230415 C94.7455669,75.8523702 96.1076823,77.0889439 97.0463006,78.7146261 L97.2149456,79.0073996 C97.8968277,80.1886219 97.0135608,81.2181578 96.1017938,81.9217093 C95.0437578,82.7380834 93.9753582,83.7202762 92.9611323,84.5957704 C90.699969,86.5476724 88.4421033,88.5042853 86.1821177,90.4580717 Z M83.2553245,88.4025329 C85.7845298,86.233936 88.3142062,84.0639259 90.8361099,81.8866141 C91.6979428,81.1432567 92.6431562,80.3718703 93.4983941,79.5901202 C92.8120368,78.7256963 91.6661452,78.1024632 90.6921963,77.7307845 C88.7268685,76.9817742 86.7883921,77.2333286 84.985821,78.2739348 C82.6259674,79.6362856 81.621163,81.8060602 81.7094897,84.5060305 C81.7441137,85.5692483 82.0302922,86.5938379 82.5946409,87.4985387 C82.7934348,87.8174569 83.015547,88.1168255 83.2553245,88.4025329 L83.2553245,88.4025329 Z" id="Fill-1" fill="#364548"></path>
            <path d="M64.864059,20.1128116 L74.920347,20.1128116 L74.920347,30.3928606 L80.0051379,30.3928606 C82.3532146,30.3928606 84.7684196,29.9745454 86.9921323,29.2210599 C88.0847924,28.8505589 89.3112379,28.3349665 90.3890591,27.6865309 C88.9694725,25.8330836 88.2447226,23.4927796 88.0313253,21.185922 C87.7416138,18.0483225 88.3745039,13.9643319 90.4981131,11.5086144 L91.5552069,10.2859374 L92.8148633,11.2985146 C95.9863803,13.846563 98.6536108,17.4069529 99.1237443,21.465741 C102.942519,20.342461 107.425982,20.6081477 110.792053,22.5508638 L112.173012,23.3476883 L111.446142,24.7663327 C108.599432,30.3221993 102.648097,32.0432743 96.8296057,31.7387238 C88.1229495,53.4242216 69.1675708,63.690845 46.1842595,63.690845 C34.310326,63.690845 23.4162298,59.2521344 17.2126342,48.7172335 L17.1108819,48.5452908 L16.2071232,46.7064469 C14.1101298,42.0691779 13.4136444,36.9890978 13.8861333,31.9132574 L14.0279271,30.3928606 L22.6271781,30.3928606 L22.6271781,20.1128116 L32.6832306,20.1128116 L32.6832306,10.056288 L52.7962778,10.056288 L52.7962778,0 L64.864059,0 L64.864059,20.1128116" id="Fill-2" fill="#364548"></path>
            <path d="M97.4450661,23.9158056 C98.119411,18.6755597 94.1977059,14.5593005 91.7655422,12.605043 C88.9628774,15.8453371 88.527368,24.3376539 92.9243884,27.9131183 C90.4705552,30.0927854 85.2995574,32.0684768 80.0051379,32.0684768 L15.5556255,32.0684768 C15.0407398,37.5953722 16.0111557,42.6848739 18.2270957,47.0413817 L18.960325,48.3822987 C19.4245701,49.1701727 19.931683,49.9304889 20.4797796,50.6625405 L20.4800151,50.6625405 C23.1295803,50.8325988 25.5725788,50.8914833 27.8075973,50.8420203 L27.8085395,50.8420203 C32.2008491,50.7447432 35.7845573,50.2265599 38.5007797,49.2853507 C38.9051981,49.1447346 39.3458894,49.3593096 39.4857989,49.763257 C39.6254729,50.1672044 39.4116045,50.6081312 39.0076571,50.7482762 C38.6465776,50.8733468 38.2699526,50.9904091 37.8810796,51.101583 C37.8806085,51.1018185 37.8801375,51.1018185 37.8796664,51.1020541 C35.7409828,51.7125682 33.4477864,52.1235817 30.4887245,52.3061235 C30.6642002,52.30895 30.3057116,52.3325038 30.3047695,52.3327393 C30.2041948,52.3388633 30.0774755,52.3532311 29.9764297,52.358884 C28.8119307,52.424128 27.5548652,52.4377892 26.2697708,52.4377892 C24.8643165,52.4377892 23.4800606,52.4111734 21.932577,52.3327393 L21.8930066,52.358884 C27.2630338,58.3945411 35.6594867,62.0145222 46.1842595,62.0145222 C68.459073,62.0145222 87.3527408,52.1403049 95.7190448,29.9721901 C101.654834,30.5812909 107.359325,29.0677248 109.954245,24.002248 C105.820792,21.6169563 100.505645,22.377508 97.4450661,23.9158056" id="Fill-3" fill="#22A0C8"></path>
            <path d="M97.4450661,23.9158056 C98.119411,18.6755597 94.1977059,14.5593005 91.7655422,12.605043 C88.9628774,15.8453371 88.527368,24.3376539 92.9243884,27.9131183 C90.4705552,30.0927854 85.2995574,32.0684768 80.0051379,32.0684768 L19.3720451,32.0684768 C19.1089494,40.5327646 22.250082,46.9577658 27.8075973,50.8420203 L27.8085395,50.8420203 C32.2008491,50.7447432 35.7845573,50.2265599 38.5007797,49.2853507 C38.9051981,49.1447346 39.3458894,49.3593096 39.4857989,49.763257 C39.6254729,50.1672044 39.4116045,50.6081312 39.0076571,50.7482762 C38.6465776,50.8733468 38.2699526,50.9904091 37.8810796,51.101583 C37.8806085,51.1018185 37.8801375,51.1018185 37.8796664,51.1020541 C35.7409828,51.7125682 33.2506412,52.1763422 30.2915794,52.358884 C30.2908727,52.358884 30.2199759,52.2903425 30.2190337,52.290578 C37.7995835,56.1790722 48.7916634,56.1651755 61.39388,51.3241663 C75.5247371,45.8957257 88.673637,35.5532592 97.8485424,23.7240778 C97.7100462,23.7864953 97.5753185,23.8505616 97.4450661,23.9158056" id="Fill-4" fill="#37B0D9"></path>
            <path d="M15.6762209,38.7836606 C16.0768708,41.7441357 16.9427079,44.5161806 18.2270957,47.0413817 L18.960325,48.3822987 C19.4245701,49.1701727 19.931683,49.9304889 20.4800151,50.6625405 C23.1300514,50.8325988 25.5732854,50.8914833 27.8085395,50.8420203 C32.2008491,50.7447432 35.7845573,50.2265599 38.5007797,49.2853507 C38.9051981,49.1447346 39.3458894,49.3593096 39.4857989,49.763257 C39.6254729,50.1672044 39.4116045,50.6081312 39.0076571,50.7482762 C38.6465776,50.8733468 38.2699526,50.9904091 37.8810796,51.101583 C37.8806085,51.1018185 37.8801375,51.1018185 37.8796664,51.1020541 C35.7409828,51.7125682 33.2638314,52.1499619 30.3047695,52.3327393 C30.2032527,52.3388633 30.0261282,52.340041 29.9236693,52.3456939 C28.7596413,52.4111734 27.5155304,52.4509793 26.2302004,52.4509793 C24.8249817,52.4509793 23.3879653,52.424128 21.8407172,52.3456939 C27.2105089,58.381351 35.6594867,62.0145222 46.1842595,62.0145222 C65.2536385,62.0145222 81.8444529,54.7764444 91.4737108,38.7836606 L15.6762209,38.7836606" id="Fill-5" fill="#1B81A5"></path>
            <path d="M19.9521748,38.7836606 C21.092178,43.9817452 23.8317186,48.0626738 27.8085395,50.8420203 C32.2008491,50.7447432 35.7845573,50.2265599 38.5007797,49.2853507 C38.9051981,49.1447346 39.3458894,49.3593096 39.4857989,49.763257 C39.6254729,50.1672044 39.4116045,50.6081312 39.0076571,50.7482762 C38.6465776,50.8733468 38.2699526,50.9904091 37.8810796,51.101583 C37.8806085,51.1018185 37.8801375,51.1018185 37.8796664,51.1020541 C35.7409828,51.7125682 33.2113064,52.1499619 30.2522445,52.3327393 C37.8323233,56.2205269 48.7926056,56.1647044 61.39388,51.3241663 C69.0172977,48.3952532 76.3543014,44.0349767 82.9368774,38.7836606 L19.9521748,38.7836606" id="Fill-6" fill="#1E91B4"></path>
            <path d="M24.3032653,30.5045056 L33.0186365,30.5045056 L33.0186365,21.7886634 L24.3032653,21.7886634 L24.3032653,30.5045056 Z M25.029193,29.7785779 L25.7169634,29.7785779 L25.7169634,22.5150621 L25.029193,22.5150621 L25.029193,29.7785779 Z M26.3222957,29.7785779 L27.0376241,29.7785779 L27.0376241,22.5150621 L26.3222957,22.5150621 L26.3222957,29.7785779 Z M27.6424853,29.7785779 L28.3578137,29.7785779 L28.3578137,22.5150621 L27.6424853,22.5150621 L27.6424853,29.7785779 Z M28.9633815,29.7785779 L29.6787099,29.7785779 L29.6787099,22.5150621 L28.9633815,22.5150621 L28.9633815,29.7785779 Z M30.2840422,29.7785779 L30.9993706,29.7785779 L30.9993706,22.5150621 L30.2840422,22.5150621 L30.2840422,29.7785779 Z M31.6044673,29.7785779 L32.2927088,29.7785779 L32.2927088,22.5150621 L31.6044673,22.5150621 L31.6044673,29.7785779 Z" id="Fill-7" fill="#23A3C1"></path>
            <path d="M34.3590823,20.4477464 L43.0753956,20.4477464 L43.0753956,11.7323753 L34.3590823,11.7323753 L34.3590823,20.4477464 Z M35.0859521,19.7215833 L35.7732515,19.7215833 L35.7732515,12.458774 L35.0859521,12.458774 L35.0859521,19.7215833 Z M36.3790548,19.7215833 L37.0939122,19.7215833 L37.0939122,12.458774 L36.3790548,12.458774 L36.3790548,19.7215833 Z M37.6990089,19.7215833 L38.4143373,19.7215833 L38.4143373,12.458774 L37.6990089,12.458774 L37.6990089,19.7215833 Z M39.0196695,19.7215833 L39.734998,19.7215833 L39.734998,12.458774 L39.0196695,12.458774 L39.0196695,19.7215833 Z M40.3405657,19.7215833 L41.0558942,19.7215833 L41.0558942,12.458774 L40.3405657,12.458774 L40.3405657,19.7215833 Z M41.6607553,19.7215833 L42.349468,19.7215833 L42.349468,12.458774 L41.6607553,12.458774 L41.6607553,19.7215833 Z" id="Fill-8" fill="#23A3C1"></path>
            <path d="M34.3590823,30.5045056 L43.0753956,30.5045056 L43.0753956,21.7886634 L34.3590823,21.7886634 L34.3590823,30.5045056 Z M35.0859521,29.7785779 L35.7732515,29.7785779 L35.7732515,22.5150621 L35.0859521,22.5150621 L35.0859521,29.7785779 Z M36.3790548,29.7785779 L37.0939122,29.7785779 L37.0939122,22.5150621 L36.3790548,22.5150621 L36.3790548,29.7785779 Z M37.6990089,29.7785779 L38.4143373,29.7785779 L38.4143373,22.5150621 L37.6990089,22.5150621 L37.6990089,29.7785779 Z M39.0196695,29.7785779 L39.734998,29.7785779 L39.734998,22.5150621 L39.0196695,22.5150621 L39.0196695,29.7785779 Z M40.3405657,29.7785779 L41.0558942,29.7785779 L41.0558942,22.5150621 L40.3405657,22.5150621 L40.3405657,29.7785779 Z M41.6607553,29.7785779 L42.349468,29.7785779 L42.349468,22.5150621 L41.6607553,22.5150621 L41.6607553,29.7785779 Z" id="Fill-9" fill="#34BBDE"></path>
            <path d="M44.4158414,30.5045056 L53.1316836,30.5045056 L53.1316836,21.7886634 L44.4158414,21.7886634 L44.4158414,30.5045056 Z M45.1422401,29.7785779 L45.8295395,29.7785779 L45.8295395,22.5150621 L45.1422401,22.5150621 L45.1422401,29.7785779 Z M46.4351073,29.7785779 L47.1504358,29.7785779 L47.1504358,22.5150621 L46.4351073,22.5150621 L46.4351073,29.7785779 Z M47.755768,29.7785779 L48.4710964,29.7785779 L48.4710964,22.5150621 L47.755768,22.5150621 L47.755768,29.7785779 Z M49.0764287,29.7785779 L49.7917571,29.7785779 L49.7917571,22.5150621 L49.0764287,22.5150621 L49.0764287,29.7785779 Z M50.3968538,29.7785779 L51.1126533,29.7785779 L51.1126533,22.5150621 L50.3968538,22.5150621 L50.3968538,29.7785779 Z M51.7175145,29.7785779 L52.4052849,29.7785779 L52.4052849,22.5150621 L51.7175145,22.5150621 L51.7175145,29.7785779 Z" id="Fill-10" fill="#23A3C1"></path>
            <path d="M44.4158414,20.4477464 L53.1316836,20.4477464 L53.1316836,11.7323753 L44.4158414,11.7323753 L44.4158414,20.4477464 Z M45.1422401,19.7215833 L45.8295395,19.7215833 L45.8295395,12.458774 L45.1422401,12.458774 L45.1422401,19.7215833 Z M46.4351073,19.7215833 L47.1504358,19.7215833 L47.1504358,12.458774 L46.4351073,12.458774 L46.4351073,19.7215833 Z M47.755768,19.7215833 L48.4710964,19.7215833 L48.4710964,12.458774 L47.755768,12.458774 L47.755768,19.7215833 Z M49.0764287,19.7215833 L49.7917571,19.7215833 L49.7917571,12.458774 L49.0764287,12.458774 L49.0764287,19.7215833 Z M50.3968538,19.7215833 L51.1126533,19.7215833 L51.1126533,12.458774 L50.3968538,12.458774 L50.3968538,19.7215833 Z M51.7175145,19.7215833 L52.4052849,19.7215833 L52.4052849,12.458774 L51.7175145,12.458774 L51.7175145,19.7215833 Z" id="Fill-11" fill="#34BBDE"></path>
            <path d="M54.472365,30.5045056 L63.1879717,30.5045056 L63.1879717,21.7886634 L54.472365,21.7886634 L54.472365,30.5045056 Z M55.1987637,29.7785779 L55.8862987,29.7785779 L55.8862987,22.5150621 L55.1987637,22.5150621 L55.1987637,29.7785779 Z M56.4918665,29.7785779 L57.2071949,29.7785779 L57.2071949,22.5150621 L56.4918665,22.5150621 L56.4918665,29.7785779 Z M57.812056,29.7785779 L58.5273845,29.7785779 L58.5273845,22.5150621 L57.812056,22.5150621 L57.812056,29.7785779 Z M59.1329523,29.7785779 L59.8482807,29.7785779 L59.8482807,22.5150621 L59.1329523,22.5150621 L59.1329523,29.7785779 Z M60.4536129,29.7785779 L61.1689413,29.7785779 L61.1689413,22.5150621 L60.4536129,22.5150621 L60.4536129,29.7785779 Z M61.774038,29.7785779 L62.4620441,29.7785779 L62.4620441,22.5150621 L61.774038,22.5150621 L61.774038,29.7785779 Z" id="Fill-12" fill="#34BBDE"></path>
            <path d="M54.472365,20.4477464 L63.1879717,20.4477464 L63.1879717,11.7323753 L54.472365,11.7323753 L54.472365,20.4477464 Z M55.1987637,19.7215833 L55.8862987,19.7215833 L55.8862987,12.458774 L55.1987637,12.458774 L55.1987637,19.7215833 Z M56.4918665,19.7215833 L57.2071949,19.7215833 L57.2071949,12.458774 L56.4918665,12.458774 L56.4918665,19.7215833 Z M57.812056,19.7215833 L58.5273845,19.7215833 L58.5273845,12.458774 L57.812056,12.458774 L57.812056,19.7215833 Z M59.1329523,19.7215833 L59.8482807,19.7215833 L59.8482807,12.458774 L59.1329523,12.458774 L59.1329523,19.7215833 Z M60.4536129,19.7215833 L61.1689413,19.7215833 L61.1689413,12.458774 L60.4536129,12.458774 L60.4536129,19.7215833 Z M61.774038,19.7215833 L62.4620441,19.7215833 L62.4620441,12.458774 L61.774038,12.458774 L61.774038,19.7215833 Z" id="Fill-13" fill="#23A3C1"></path>
            <path d="M54.472365,10.3916939 L63.1879717,10.3916939 L63.1879717,1.67585173 L54.472365,1.67585173 L54.472365,10.3916939 Z M55.1987637,9.66529524 L55.8862987,9.66529524 L55.8862987,2.40177935 L55.1987637,2.40177935 L55.1987637,9.66529524 Z M56.4918665,9.66529524 L57.2071949,9.66529524 L57.2071949,2.40177935 L56.4918665,2.40177935 L56.4918665,9.66529524 Z M57.812056,9.66529524 L58.5273845,9.66529524 L58.5273845,2.40177935 L57.812056,2.40177935 L57.812056,9.66529524 Z M59.1329523,9.66529524 L59.8482807,9.66529524 L59.8482807,2.40177935 L59.1329523,2.40177935 L59.1329523,9.66529524 Z M60.4536129,9.66529524 L61.1689413,9.66529524 L61.1689413,2.40177935 L60.4536129,2.40177935 L60.4536129,9.66529524 Z M61.774038,9.66529524 L62.4620441,9.66529524 L62.4620441,2.40177935 L61.774038,2.40177935 L61.774038,9.66529524 Z" id="Fill-14" fill="#34BBDE"></path>
            <path d="M64.5286531,30.5045056 L73.2444953,30.5045056 L73.2444953,21.7886634 L64.5286531,21.7886634 L64.5286531,30.5045056 Z M65.2545807,29.7785779 L65.9428223,29.7785779 L65.9428223,22.5150621 L65.2545807,22.5150621 L65.2545807,29.7785779 Z M66.5476834,29.7785779 L67.2630118,29.7785779 L67.2630118,22.5150621 L66.5476834,22.5150621 L66.5476834,29.7785779 Z M67.8685796,29.7785779 L68.5839081,29.7785779 L68.5839081,22.5150621 L67.8685796,22.5150621 L67.8685796,29.7785779 Z M69.1887692,29.7785779 L69.9040976,29.7785779 L69.9040976,22.5150621 L69.1887692,22.5150621 L69.1887692,29.7785779 Z M70.509901,29.7785779 L71.2249938,29.7785779 L71.2249938,22.5150621 L70.509901,22.5150621 L70.509901,29.7785779 Z M71.8303261,29.7785779 L72.5180966,29.7785779 L72.5180966,22.5150621 L71.8303261,22.5150621 L71.8303261,29.7785779 Z" id="Fill-15" fill="#23A3C1"></path>
            <path d="M42.5296544,44.6353627 C43.8573812,44.6353627 44.9337891,45.7122417 44.9337891,47.0399685 C44.9337891,48.3676953 43.8573812,49.4441032 42.5296544,49.4441032 C41.2016921,49.4441032 40.1250486,48.3676953 40.1250486,47.0399685 C40.1250486,45.7122417 41.2016921,44.6353627 42.5296544,44.6353627" id="Fill-16" fill="#D3ECEC"></path>
            <path d="M42.5296544,45.3174803 C42.7496468,45.3174803 42.959511,45.3589349 43.1531231,45.4340715 C42.9432589,45.5553735 42.8012295,45.7826675 42.8012295,46.0427013 C42.8012295,46.4308677 43.1159081,46.7450751 43.5040745,46.7450751 C43.7699967,46.7450751 44.0010593,46.5973929 44.120477,46.3792849 C44.2047995,46.582554 44.2516716,46.8058439 44.2516716,47.0399685 C44.2516716,47.9908348 43.4807562,48.7617501 42.5296544,48.7617501 C41.5787882,48.7617501 40.8074017,47.9908348 40.8074017,47.0399685 C40.8074017,46.0886312 41.5787882,45.3174803 42.5296544,45.3174803" id="Fill-17" fill="#364548"></path>
            <path d="M0,39.6527952 L111.851503,39.6527952 C109.416041,39.0349795 104.145882,38.2004689 105.015017,35.0086957 C100.58667,40.1330569 89.9069131,38.6037097 87.2116536,36.0768598 C84.2101949,40.4300701 66.7372914,38.7754168 65.5186186,35.384143 C61.7559016,39.8000064 50.0963075,39.8000064 46.333355,35.384143 C45.1142111,38.7754168 27.6415431,40.4300701 24.6398489,36.0768598 C21.9445894,38.6037097 11.2657749,40.1330569 6.83695686,35.0086957 C7.70609149,38.2004689 2.43593233,39.0349795 0,39.6527952" id="Fill-18" fill="#364548"></path>
            <path d="M48.9214448,61.9624683 C42.9668126,59.1367209 39.6982541,55.2955698 37.8796664,51.1020541 C35.6679661,51.733531 33.0089794,52.1370073 29.9196651,52.3103632 C28.7558727,52.3756072 27.5317825,52.4090536 26.2469236,52.4090536 C24.7658617,52.4090536 23.2051879,52.3652435 21.5667867,52.2783301 C27.027496,57.7357418 33.7455062,61.9377368 46.1842595,62.0145222 C47.1026216,62.0145222 48.0143885,61.9966213 48.9214448,61.9624683" id="Fill-19" fill="#BDD9D7"></path>
            <path d="M40.0916022,54.9714697 C39.2676909,53.853136 38.468511,52.4476818 37.8810796,51.101583 C35.6689082,51.7332955 33.0094505,52.1370073 29.9196651,52.3103632 C32.041861,53.4623788 35.0772372,54.5298363 40.0916022,54.9714697" id="Fill-20" fill="#D3ECEC"></path>
        </g>
    </g>
</svg>