<?xml version="1.0" encoding="UTF-8" standalone="no"?>
<svg width="76px" height="76px" viewBox="0 0 76 76" version="1.1" xmlns="http://www.w3.org/2000/svg" xmlns:xlink="http://www.w3.org/1999/xlink">
    <!-- Generator: Sketch 45.2 (43514) - http://www.bohemiancoding.com/sketch -->
    <title>dollar-shave-club-logo</title>
    <desc>Created with Sketch.</desc>
    <defs></defs>
    <g id="Page-1" stroke="none" stroke-width="1" fill="none" fill-rule="evenodd">
        <g id="dollar-shave-club-logo" fill-rule="nonzero" fill="#ED670F">
            <path d="M41,0.2 C17.6,-2 -1.9,17.5 0.2,41 C1.8,58.9 16.2,73.3 34.1,74.9 C57.4,77 76.9,57.5 74.9,34.1 C73.3,16.2 58.9,1.8 41,0.2 Z M71.2,37.5 C71.2,56.1 56.1,71.1 37.6,71.1 C19.1,71.1 4,56 4,37.5 C4,18.9 19.1,3.9 37.6,3.9 C56.1,3.9 71.2,18.9 71.2,37.5 Z" id="Shape"></path>
            <path d="M37.5,22.7 C37,22.7 36.5,22.4 36.2,22 L35.2,23.1 C35.9,23.7 36.6,23.9 37.4,23.9 C38.8,23.9 40,23.2 40,21.7 C40,19.4 36.9,20.1 36.9,18.9 C36.9,18.4 37.5,18.2 37.9,18.2 C38.3,18.2 38.7,18.4 38.9,18.7 L39.9,17.6 C39.3,17.1 38.6,16.9 37.8,16.9 C36.5,16.9 35.3,17.6 35.3,19.1 C35.3,21.3 38.5,20.7 38.5,21.9 C38.4,22.4 37.9,22.7 37.5,22.7 Z" id="Shape"></path>
            <path d="M54.1,36.3 C54.7,36.3 55,36.5 55.4,36.9 L56.5,36 C55.9,35.3 55,35 54.3,35 C52.2,35 50.6,36.4 50.6,38.6 C50.6,40.8 52.1,42.2 54.3,42.2 C55.2,42.2 56.2,41.8 56.7,41 L55.5,40.1 C55.2,40.6 54.8,40.8 54.1,40.8 C53.1,40.8 52.2,39.9 52.2,38.6 C52.2,37.3 53,36.3 54.1,36.3 Z" id="Shape"></path>
            <path d="M24.4,38.6 C24.4,36.2 22.6,35.2 20.4,35.2 L18.2,35.2 L18.2,41.9 L20.6,41.9 C22.7,41.9 24.4,40.7 24.4,38.6 Z M20.4,40.6 L19.7,40.6 L19.7,36.6 L20.5,36.6 C21.7,36.6 22.8,37.3 22.8,38.6 C22.8,40 21.8,40.6 20.4,40.6 Z" id="Shape"></path>
            <path d="M44.9,30.9 C44.9,30.9 45.3,29.9 46.5,29.1 C46.5,29.1 50.5,26.4 51.6,26.3 L52.8,27.9 L53,28 L53.8,27.5 L54.4,27.8 L56.7,31 C56.7,31 57.5,31.6 58.4,30.3 C58.4,30.3 58.9,29.8 58.9,29.1 L48.8,15.6 C48.8,15.6 47.6,15.1 47.2,16.4 L47,17.9 L49.2,20.8 L49,21.6 L48.7,21.7 L48.6,22.3 L49.3,23.3 C49.3,23.3 46.1,25.5 45.3,26.4 L40.8,30.2 L37.6,33 L37.6,33 L37.6,33 L37.6,33 L37.6,33 L34.4,29.9 L29.9,26.1 C29.1,25.2 25.9,23 25.9,23 L26.6,22 L26.5,21.4 L26.2,21.3 L26,20.5 L28.2,17.6 L28,16.1 C27.6,14.8 26.4,15.3 26.4,15.3 L16.2,29 C16.2,29.7 16.7,30.2 16.7,30.2 C17.5,31.4 18.4,30.9 18.4,30.9 L20.7,27.7 L21.3,27.4 L22.1,27.9 L22.3,27.8 L23.5,26.2 C24.5,26.3 28.6,29 28.6,29 C29.8,29.7 30.2,30.8 30.2,30.8 C30.8,32.5 32,33.4 32,33.4 L34.6,35.9 L18,51.8 C18,51.8 16.2,53.5 16.9,54.4 C16.9,54.4 18.3,56.3 20.7,54.3 L26.9,48.7 L37.6,38.7 L48.3,48.8 L54.5,54.4 C56.9,56.3 58.3,54.5 58.3,54.5 C59,53.6 57.2,51.9 57.2,51.9 L40.6,36 L43.2,33.5 C43.1,33.5 44.3,32.6 44.9,30.9 Z" id="Shape"></path>
        </g>
    </g>
</svg>