<svg width="188" height="48" viewBox="0 0 188 48" xmlns="http://www.w3.org/2000/svg"><title>Blue</title><g fill="none" fill-rule="evenodd"><path d="M152.077 13.742c0-3.684-5.583-3.684-5.583 0 0 3.683 5.583 3.683 5.583 0zm-5.096 24.362h4.528c.14 0 .255-.114.255-.255V19.556a.255.255 0 0 0-.255-.255h-4.528a.255.255 0 0 0-.255.255v18.293c0 .14.114.255.255.255zM84.91 19.554c0-.14.115-.253.255-.253h4.485c.14 0 .255.114.255.255v18.293c0 .14-.114.255-.255.255h-4.485a.255.255 0 0 1-.256-.254l-.003-1.379c-1.576 1.456-3.416 1.487-5.064 1.515l-.28.004c-2.687 0-4.969-.846-6.598-2.446-1.72-1.688-2.627-4.159-2.627-7.145 0-5.741 3.662-9.45 9.33-9.45h.087c1.788 0 3.633.182 5.152 1.38l.004-.774zm-.971 12.158c.759-.886 1.092-2.085 1.092-3.374 0-2.354-1.44-4.809-4.893-4.809-2.85 0-4.764 1.957-4.764 4.87 0 2.934 1.915 4.905 4.764 4.905 1.453 0 2.953-.602 3.8-1.592zm60.049 6.392a.255.255 0 0 0 .256-.255v-4.095a.255.255 0 0 0-.255-.255c-.46 0-1.92-.002-2.223-.015-1.31-.056-1.895-.7-1.895-2.09v-6.992h4.118c.14 0 .255-.115.255-.256v-4.548a.255.255 0 0 0-.255-.255h-4.083v-3.978a.255.255 0 0 0-.255-.255h-4.53a.256.256 0 0 0-.256.255l.003 16.029c0 4.263 2.404 6.709 6.612 6.709h.836l1.672.001zm23.409-5.866a.258.258 0 0 0-.352-.019c-.885.721-1.994 1.13-3.077 1.13-2.746 0-4.663-1.975-4.663-4.804 0-2.83 1.917-4.805 4.663-4.805 1.083 0 2.192.41 3.077 1.13.106.086.258.08.352-.018l2.901-3.06a.261.261 0 0 0-.01-.367c-1.867-1.762-3.793-2.517-6.391-2.517-5.876 0-9.672 3.783-9.672 9.637 0 5.854 3.796 9.637 9.672 9.637 2.598 0 4.524-.756 6.392-2.518a.261.261 0 0 0 .01-.368l-2.902-3.058zM71.522 14.767v-4.4a.32.32 0 0 0-.32-.319H54.907a.32.32 0 0 0-.32.32v27.414c0 .176.143.32.32.32h4.399a.32.32 0 0 0 .319-.32V26.594a.32.32 0 0 1 .32-.32h8.206a.32.32 0 0 0 .32-.318v-4.4a.32.32 0 0 0-.32-.319h-8.207a.32.32 0 0 1-.319-.32v-5.511a.32.32 0 0 1 .32-.32h11.259a.32.32 0 0 0 .32-.32zm55.713 4.788c0-.14.115-.254.255-.254h4.485c.14 0 .255.114.255.255v18.293c0 .14-.114.255-.255.255h-4.485a.255.255 0 0 1-.256-.254l-.004-1.379c-1.575 1.456-3.415 1.487-5.063 1.515l-.28.004c-2.688 0-4.969-.846-6.598-2.446-1.72-1.688-2.628-4.159-2.628-7.145 0-5.741 3.662-9.45 9.33-9.45h.088c1.788 0 3.632.182 5.152 1.38l.004-.774zm-.971 12.157c.759-.886 1.092-2.085 1.092-3.374 0-2.354-1.44-4.809-4.893-4.809-2.85 0-4.764 1.957-4.764 4.87 0 2.934 1.914 4.905 4.764 4.905 1.453 0 2.953-.602 3.8-1.592zm45.46 3.082a.26.26 0 0 0 .024.335c2.675 2.685 5.61 3.053 8.136 3.053 3.566 0 6.238-1.362 7.33-3.735.333-.724.501-1.51.501-2.338 0-4.812-4.153-5.697-7.772-5.93-2.888-.184-2.888-1.196-2.888-1.53 0-1.219 1.954-1.35 2.794-1.35 1.627 0 2.824.394 3.843 1.272.108.094.27.086.362-.022l2.557-2.974a.259.259 0 0 0-.028-.365c-1.87-1.567-3.862-2.21-6.805-2.21-1.858 0-3.694.458-5.037 1.257-1.736 1.033-2.653 2.601-2.653 4.534 0 3.346 2.67 5.39 7.528 5.755 2.745.157 3.097.955 3.097 1.633 0 1.004-1.327 1.529-2.637 1.529l-.115-.001c-2.12-.039-4.155-.821-5.511-2.107a.255.255 0 0 0-.383.03l-2.343 3.164zm-68.94-15.704c4.622 0 7.727 3.57 7.727 8.887v9.872c0 .14-.114.255-.255.255h-4.528a.255.255 0 0 1-.255-.255v-9.837c0-2.065-1.002-4.272-3.814-4.272l-.093.001c-2.15.038-3.968 1.94-3.968 4.153v9.955c0 .14-.114.255-.255.255H92.85a.255.255 0 0 1-.255-.255V19.59c0-.141.114-.255.255-.255h4.341c.14 0 .255.114.255.254l.007 1.628c1.692-1.467 3.365-2.128 5.33-2.128z" fill="#081F40"/><path d="M33.286 25.671a.19.19 0 0 0 .242-.068l5.707-8.822c.07-.11.008-.245-.115-.288-8.223-2.835-15.912 2.61-27.648 2.908a.492.492 0 0 0-.403.744L23.74 39.698c.186.329.621.125.569-.178L21.58 27.139c-.023-.109.047-.208.151-.246.988-.362 8.16-2.798 11.554-1.222M46.97 4.764l-4.693 7.291c-.096.15-.292.225-.452.145-10.835-5.45-23.337 4.572-34.372 2.182a.394.394 0 0 1-.25-.167L.089 3.265a.491.491 0 0 1 .506-.75c.964.22 5.11 1.138 8.337 1.37 16.74.903 25.809-9.14 37.944.378.155.121.2.336.093.501" fill="#E53C2E"/><path fill="#FBFBFB" d="M45 38h5v10h-5z"/></g></svg>