<svg xmlns="http://www.w3.org/2000/svg" width="166" height="50" viewBox="0 0 166 50" xmlns:xlink="http://www.w3.org/1999/xlink">
  <defs>
    <polygon id="a" points="115.872 29.666 115.872 .013 .014 .013 .014 29.666 115.872 29.666"/>
    <polygon id="c" points="0 .001 0 49.974 40.428 49.974 40.428 .001"/>
  </defs>
  <g fill="none" fill-rule="evenodd">
    <g transform="translate(50.123 10.061)">
      <mask id="b" fill="white">
        <use xlink:href="#a"/>
      </mask>
      <path fill="#6862A7" d="M104.085185,29.6659314 C100.058903,29.6659314 98.5438907,27.1988261 98.5438907,23.8093782 L98.5438907,8.70540506 L102.940135,8.70540506 L102.940135,24.3614422 C102.940135,25.4678148 103.752435,25.9463235 104.713113,25.9463235 C106.634469,25.9463235 109.257735,25.4678148 111.438662,24.509791 L111.438662,8.70540506 L115.872091,8.70540506 L115.872091,26.4615196 C110.62556,29.3347652 106.597672,29.6659314 104.085185,29.6659314 L104.085185,29.6659314 Z M95.7746794,29.1507353 L90.5649448,29.1507353 C89.3463003,25.9094298 87.6456995,22.593563 85.0224338,19.7205237 L82.6947334,19.7205237 L82.6947334,29.1507353 L78.2613042,29.1507353 L78.2613042,0.0125 L82.6947334,0.0125 L82.6947334,16.7357972 L84.7640793,16.7357972 C87.0177978,14.414822 88.7539533,11.542789 89.973814,8.70540506 L94.961163,8.70540506 C93.2621925,12.1317466 91.0824818,15.1521285 88.6435886,17.6202399 C91.5628079,21.3041667 93.8533232,25.209017 95.7746794,29.1507353 L95.7746794,29.1507353 Z M64.7782486,11.8741615 C61.3782632,11.8741615 59.4945061,13.8258643 59.4945061,19.0200851 C59.4945061,24.6938209 61.0831119,25.9463235 64.7782486,25.9463235 C68.1766037,25.9463235 70.061577,24.0300955 70.061577,18.8360552 C70.061577,13.1623194 68.4725831,11.8741615 64.7782486,11.8741615 L64.7782486,11.8741615 Z M64.7782486,29.6659314 C58.1634785,29.6659314 55.1710536,26.4248323 55.1710536,19.0200851 C55.1710536,11.1737229 59.1241566,8.19023478 64.7782486,8.19023478 C71.3910002,8.19023478 74.3842274,11.4313338 74.3842274,18.8360552 C74.3842274,26.6824174 70.4303222,29.6659314 64.7782486,29.6659314 L64.7782486,29.6659314 Z M47.2284905,13.3094556 L47.2284905,29.1507353 L42.7946473,29.1507353 L42.7946473,11.3208591 C46.5265809,9.29536894 50.4796581,8.66871775 53.066955,8.48471362 L53.066955,12.1686404 C51.2563776,12.3157766 48.964672,12.5366744 47.2284905,13.3094556 L47.2284905,13.3094556 Z M31.0093719,11.8741615 C29.681139,11.8741615 27.5742199,11.910823 25.8380384,12.240983 C25.654054,13.1254515 25.4312802,14.3412668 25.3572983,16.588661 L34.5941179,16.588661 C34.5941179,13.5303793 34.039784,11.8741615 31.0093719,11.8741615 L31.0093719,11.8741615 Z M25.3948974,19.6469427 C25.542473,24.9145382 26.5775471,25.9463235 29.8275243,25.9463235 C32.3771964,25.9463235 35.2592306,25.0985681 37.4765404,24.2509933 L38.2152469,27.5656734 C35.8503614,28.6353586 32.9687153,29.6659314 29.5335633,29.6659314 C22.1429017,29.6659314 20.9970489,25.614951 20.9970489,19.1672214 C20.9970489,15.6316434 21.2566196,12.4262255 22.1061048,9.47939886 C24.3226124,8.63184985 27.2786545,8.19023478 31.0093719,8.19023478 C37.0706102,8.19023478 38.9171564,11.542789 38.9171564,17.3995485 L38.9171564,19.6469427 L25.3948974,19.6469427 Z M12.7233139,29.1507353 L12.7233139,13.4578044 C12.7233139,12.3514577 11.9098233,11.8741615 10.9507496,11.8741615 C9.02817718,11.8741615 6.6269089,12.3514577 4.44678419,13.3094556 L4.44678419,29.1507353 L0.0137431956,29.1507353 L0.0137431956,0.0125 L4.44678419,0.0125 L4.44678419,9.6255289 C6.55370329,8.85274768 9.06580212,8.19023478 11.5782632,8.19023478 C15.6053482,8.19023478 17.1203602,10.6583462 17.1203602,14.0457817 L17.1203602,29.1507353 L12.7233139,29.1507353 Z" mask="url(#b)"/>
    </g>
    <g transform="translate(0 .025)">
      <mask id="d" fill="white">
        <use xlink:href="#c"/>
      </mask>
      <path fill="#6862A7" d="M38.7885925,5.03861971 C38.7885925,3.15804696 37.2594258,1.63345975 35.3732622,1.63345975 L5.05408025,1.63345975 C3.16747666,1.63345975 1.63955211,3.15804696 1.63955211,5.03861971 L1.63955211,44.9364009 C1.63955211,46.8167415 3.16747666,48.3413545 5.05408025,48.3413545 L35.3732622,48.3413545 C37.2594258,48.3413545 38.7885925,46.8167415 38.7885925,44.9364009 L38.7885925,5.03861971 Z M35.6469875,49.9741976 L4.78035492,49.9741976 C2.14008804,49.9741976 -5.17537022e-06,47.8406837 -5.17537022e-06,45.2084856 L-5.17537022e-06,4.76650929 C-5.17537022e-06,2.13433695 2.14008804,0.000616615067 4.78035492,0.000616615067 L35.6469875,0.000616615067 C38.2868145,0.000616615067 40.4277357,2.13433695 40.4277357,4.76650929 L40.4277357,45.2084856 C40.4277357,47.8406837 38.2868145,49.9741976 35.6469875,49.9741976 L35.6469875,49.9741976 Z" mask="url(#d)"/>
    </g>
    <path fill="#6862A7" d="M9.45798909,43.088968 L9.45798909,31.7872394 L15.1262357,37.4386068 L9.45798909,43.088968 Z M28.5458154,13.9831631 L22.5698672,13.9831631 C24.7208804,11.3610784 26.6681135,6.86848297 26.6681135,6.86848297 L32.8470139,6.86848297 C32.8470139,6.86848297 31.7892976,9.79614035 28.5458154,13.9831631 L28.5458154,13.9831631 Z M25.3354557,43.1234365 L25.3354557,23.2773581 C25.3354557,23.2773581 26.6301004,18.5281579 9.38724178,25.2201858 C9.3556979,25.3050413 9.3556979,6.86848297 9.3556979,6.86848297 L14.98958,6.83401445 L14.98958,18.6464757 C14.98958,18.6464757 30.7643414,12.4519195 30.7643414,23.344257 L30.7643414,43.1234365 L25.3354557,43.1234365 Z"/>
  </g>
</svg>
