<?xml version="1.0" encoding="UTF-8" standalone="no"?>
<svg width="15px" height="15px" viewBox="0 0 15 15" version="1.1" xmlns="http://www.w3.org/2000/svg" xmlns:xlink="http://www.w3.org/1999/xlink">
    <!-- Generator: Sketch 46.2 (44496) - http://www.bohemiancoding.com/sketch -->
    <title>Path</title>
    <desc>Created with Sketch.</desc>
    <defs></defs>
    <g id="Page-1" stroke="none" stroke-width="1" fill="none" fill-rule="evenodd">
        <g id="features-with-forrester-wave" transform="translate(-1394.000000, -88.000000)" fill="#FFFFFF">
            <path d="M1403.01703,95.5002679 L1408.68663,89.8288501 C1409.10017,89.4108884 1409.10017,88.7335763 1408.68234,88.3134712 C1408.26452,87.8955096 1407.58528,87.8955096 1407.16745,88.3134712 L1401.49786,93.9848891 L1395.82826,88.3134712 C1395.41043,87.8955096 1394.7312,87.8955096 1394.31337,88.3134712 C1393.89554,88.7314329 1393.89554,89.4108884 1394.31337,89.8288501 L1399.98297,95.5002679 L1394.31337,101.171686 C1393.89554,101.589647 1393.89554,102.269103 1394.31337,102.687065 C1394.52336,102.897117 1394.79762,103 1395.07189,103 C1395.34615,103 1395.62042,102.894974 1395.8304,102.687065 L1401.5,97.0156468 L1407.1696,102.687065 C1407.37958,102.897117 1407.65385,103 1407.92811,103 C1408.20238,103 1408.47664,102.894974 1408.68663,102.687065 C1409.10446,102.269103 1409.10446,101.589647 1408.68663,101.171686 L1403.01703,95.5002679 Z" id="Path"></path>
        </g>
    </g>
</svg>