<svg xmlns="http://www.w3.org/2000/svg" width="199" height="40" viewBox="0 0 199 40">
  <g fill="none">
    <path fill="#FF8200" d="M23.8752844,16.0495228 C26.2333664,18.4186582 28.1612729,22.2977775 27.0577187,24.6022686 C24.1061429,30.7657429 2.08514298,41.574362 0.214328534,39.7040196 C-1.65637293,37.8335504 9.1625849,15.8085061 15.3272267,12.8575009 C17.6324676,11.7538732 21.5129803,13.6822317 23.8825895,16.0403205 C23.8825895,16.0403205 23.8801257,16.0434167 23.8752844,16.0495228 L23.8752844,16.0495228 Z"/>
    <path fill="#43B02A" d="M35.5416617,13.4475193 C35.5418162,13.4474352 35.5418865,13.4473925 35.5418865,13.4473925 C35.1584507,12.0297303 34.1811693,10.5975331 32.7222848,10.427872 C30.0467598,10.1167089 25.8289467,14.8462686 26.1299083,15.9689072 C26.430758,17.0915597 32.3891501,19.0701971 34.6150193,17.4707735 C35.7623304,16.6463804 35.9237048,14.865645 35.5468546,13.4461256 L35.5416617,13.4475193 L35.5416617,13.4475193 Z M27.2605696,0.343823631 C29.2483755,0.881566571 31.2561806,2.25137061 31.4939913,4.29611527 C31.9302625,8.04660749 25.2979707,13.9588911 23.7237343,13.5371262 C22.1493849,13.1153614 19.3747645,4.76297983 21.6175937,1.64276427 C22.773673,0.0345740634 25.2708647,-0.19170951 27.2614147,0.336632853 C27.2614135,0.336632853 27.2611322,0.33905245 27.2605696,0.343823631 L27.2605696,0.343823631 Z"/>
    <g fill="#43B02A" transform="translate(46.925 7.147)">
      <path d="M39.5903179 15.3986455L37.6206399 15.1001326C35.7437251 14.8231769 34.6572139 14.2157383 34.6572139 13.1089303 34.6572139 11.8400184 36.0713845 11.0518167 38.1623257 11.0518167 39.6409845 11.0518167 40.8446347 11.6059389 41.9968009 12.1926916L42.2260129 12.3090213C42.4921552 12.4440092 42.7775796 12.5123262 43.0742902 12.5123262 43.7582092 12.5123262 44.3879577 12.1409937 44.7179126 11.5431654L44.8787948 11.2524484C45.1338468 10.7900311 45.1882294 10.2572277 45.0312465 9.75255216 44.8750799 9.24929914 44.5299533 8.84267435 44.0600596 8.60714582 42.3813505 7.76662709 40.5606758 7.0122536 38.1623268 7.0122536 33.1498166 7.0122536 29.9206704 9.43208876 29.9206704 13.327419 29.9206704 16.5247885 32.2188679 18.5291908 36.5679921 19.1239366L38.5551086 19.38243C40.6548745 19.6770305 41.6757433 20.2982594 41.6757433 21.281985 41.6757433 22.1908219 41.1843021 23.3990006 37.931737 23.3990006 36.1387321 23.3990006 34.318085 22.9439562 32.8400453 22.0078352 32.5451921 21.8211343 32.2047661 21.7224646 31.8561494 21.7224646 31.2073172 21.7224646 30.5913338 22.0667101 30.248656 22.6212403L30.1382583 22.8003424C29.8632774 23.2451424 29.7805921 23.7908496 29.911298 24.2975931 30.0418217 24.8033084 30.3623189 25.2214156 30.8135359 25.4751954 33.3905985 26.9240254 36.3650721 27.4381418 37.931737 27.4381418 43.1572603 27.4381418 46.3923592 25.1479481 46.3923592 21.1188542 46.3923569 17.8946075 44.1034061 16.0465256 39.5903179 15.3986455zM100.352697 22.4359885C99.9755374 22.015011 99.4342458 21.7735447 98.8679017 21.7735447 98.4854228 21.7735447 98.1119508 21.8824726 97.7873444 22.0886617 96.7240134 22.763419 95.5585052 23.1201879 94.4163594 23.1201879 91.2764576 23.1201879 88.9975559 20.6410697 88.9975559 17.2251977 88.9975559 13.8093256 91.2764576 11.3300104 94.4163594 11.3300104 95.6216987 11.3300104 96.7002003 11.6574398 97.713455 12.331381 98.4981169 12.8528853 99.6254853 12.7193326 100.270195 12.0308277L100.437649 11.8527389C100.879634 11.3810905 101.089761 10.7416104 101.014661 10.0988519 100.941194 9.46737867 100.597277 8.90523689 100.07158 8.55689683 98.5276729 7.53334986 96.6136157 6.9923562 94.5357917 6.9923562 88.5096047 6.9923562 84.3006152 11.200355 84.3006152 17.2251977 84.3006152 23.2502651 88.5096036 27.4582363 94.5357917 27.4582363 96.6218063 27.4582363 98.5465606 26.9061695 100.101951 25.8619089 100.621091 25.512936 100.963767 24.9553245 101.041738 24.3318582 101.120103 23.7032565 100.923121 23.0725994 100.50084 22.6013441L100.352697 22.4359885zM2.82555557.0689221902C1.25701936.0689221902.0285287138 1.31298444.0285287138 2.90112277.0285287138 4.49539597 1.23096834 5.69760922 2.82555557 5.69760922 4.41396527 5.69760922 5.65806346 4.46933602 5.65806346 2.90112277 5.65806346 1.31298444 4.41396527.0689221902 2.82555557.0689221902zM3.67220027 7.15804841L2.02206137 7.15804841C1.2136844 7.15804841.558377167 7.81323228.558377167 8.62144323L.558377167 25.4969637C.558377167 26.3054986 1.21395188 26.9609487 2.02262401 26.9609487L3.67162264 26.9609487C4.48030975 26.9609487 5.13588331 26.3054974 5.13588331 25.4969637L5.13588331 8.62144323C5.13588447 7.81323228 4.4805634 7.15804841 3.67220027 7.15804841zM57.8421886 23.0324519C55.9905651 23.0252749 53.8385841 21.5743343 53.8385841 19.0341037L53.8385841 11.4222778 57.8559387 11.4222778C58.6646258 11.4222778 59.3201856 10.7668415 59.3201856 9.95830663L59.3201856 8.62206225C59.3201856 7.81351354 58.6646258 7.15807723 57.8559387 7.15807723L53.8385841 7.15807723 53.8385841 2.76522075C53.8385841 1.95667205 53.1830244 1.30123573 52.3743373 1.30123573L50.6335473 1.30123573C49.824874 1.30123573 49.1693005 1.95667205 49.1693005 2.76522075L49.1693005 18.7615677C49.1693005 23.3663839 52.6643631 27.4381429 57.5042402 27.4381429L57.5059005 27.4381429C57.9889678 27.4381429 58.4440979 27.248951 58.7875216 26.9055931 59.1309592 26.5622202 59.3201867 26.1071758 59.3201867 25.6242282L59.3202005 24.4964115C59.3202005 23.6835827 58.6551681 23.0356035 57.8421886 23.0324519zM17.8593714 6.9923562C12.0015816 6.9923562 8.73506811 11.6763378 8.73506811 15.6849164L8.73506811 25.4969637C8.73506811 26.3054986 9.39064282 26.9609487 10.1993149 26.9609487L11.8682424 26.9609487C12.6769295 26.9609487 13.3325031 26.3054974 13.3325031 25.4969637L13.3325031 16.421419C13.3325031 13.3828323 15.1739656 11.3700023 17.8593703 11.3700023 20.544775 11.3700023 22.3862375 13.3828323 22.3862375 16.421419L22.3862375 25.4969637C22.3862375 26.3054986 23.0418122 26.9609487 23.8504844 26.9609487L25.5194118 26.9609487C26.3280989 26.9609487 26.9836725 26.3054974 26.9836725 25.4969637L26.9836725 15.6849164C26.9836748 11.6763389 23.7171474 6.9923562 17.8593714 6.9923562zM138.347006 7.19567608C137.712543 7.0569879 136.120164 6.99235735 135.296095 6.99235735 135.221727 6.99235735 135.148794 6.99501671 135.076875 6.99501671 130.540916 6.99501671 126.353883 10.6918686 126.353883 15.7872738 126.353461 15.7914524 126.352475 15.7963078 126.352475 15.8000507L126.352475 15.8959758 126.352475 25.4969637C126.352475 26.3054986 127.00805 26.9609487 127.816722 26.9609487L129.485664 26.9609487C130.294337 26.9609487 130.94991 26.3054974 130.94991 25.4969637L130.94991 15.955019C130.94991 13.181004 132.930651 11.3728023 135.357964 11.3728023 135.802399 11.3797533 136.279371 11.4296657 136.746465 11.5220311 136.873695 11.547064 137.003403 11.5597706 137.131815 11.5597706 138.057669 11.5597706 138.860121 10.9204738 139.077089 10.0200669 139.196212 9.52563689 139.283838 9.15731412 139.366398 8.82113199 139.448957 8.48494986 139.39266 8.10369683 139.199787 7.7955585 139.006492 7.48657522 138.703616 7.27342017 138.347006 7.19567608zM150.587439 11.4222778C151.39614 11.4222778 152.051715 10.7668415 152.051715 9.95830663L152.051715 8.62206225C152.051715 7.81351354 151.39614 7.15807723 150.587439 7.15807723L146.570112 7.15807723 146.570112 2.76522075C146.570112 1.95667205 145.914537 1.30123573 145.105837 1.30123573L143.36506 1.30123573C142.556387 1.30123573 141.900814 1.95667205 141.900814 2.76522075L141.900814 18.7615677C141.900814 23.3663839 145.395876 27.4381429 150.235753 27.4381429L150.237414 27.4381429C150.720495 27.4381429 151.175625 27.248951 151.519035 26.9055931 151.862472 26.5622202 152.051714 26.1071758 152.051714 25.6242282L152.051714 24.4964115C152.051714 23.683585 151.386681 23.0356058 150.573702 23.0324542 148.722078 23.0252772 146.570111 21.5743366 146.570111 19.0341061L146.570111 11.4222801 150.587439 11.4222801 150.587439 11.4222778zM118.737344 8.56249683C118.734725 8.56075159 118.732446 8.55862709 118.7298 8.55689683 117.185922 7.53336369 115.271865 6.9923562 113.194041 6.9923562 113.157843 6.9923562 113.122573 6.99441037 113.086514 6.99472046 113.050457 6.99441037 113.015158 6.9923562 112.978987 6.9923562 110.901163 6.9923562 108.987106 7.53336369 107.443228 8.55689683 107.44061 8.55862709 107.43833 8.5607389 107.435741 8.56246916 104.656123 10.3112334 102.958864 13.4012092 102.958864 17.2251977 102.958864 21.2310594 104.820959 24.4316945 107.839162 26.1283942 109.24638 26.9588807 110.91701 27.4540427 112.717658 27.4553372 116.006479 27.4577014 117.992202 25.5946905 118.616727 24.7814133L118.616727 25.4825545C118.616727 26.2910893 119.272302 26.9465395 120.080974 26.9465395L121.749916 26.9465395C122.558589 26.9465395 123.214162 26.2910882 123.214162 25.4825545L123.214162 17.2251839C123.214164 13.4012242 121.516933 10.3112622 118.737344 8.56249683zM114.925752 22.8131896C114.391047 22.990068 113.846574 23.0924669 113.305283 23.1150801 113.265706 23.1164726 113.225989 23.1174305 113.18613 23.1180207 113.152944 23.1186963 113.119672 23.1198928 113.086514 23.1199631 113.053355 23.1198928 113.020084 23.1186963 112.986869 23.1180207 112.947011 23.1174294 112.907293 23.1164726 112.867745 23.1150801 112.326454 23.0924669 111.78198 22.9900692 111.247276 22.8131896 109.089004 22.0512461 107.655804 19.9333579 107.655804 17.2251977 107.655804 14.0272092 109.653377 11.6503631 112.484787 11.3601383 112.499705 11.3586893 112.514737 11.3575354 112.529683 11.3561844 112.593607 11.3501476 112.658152 11.3456173 112.722893 11.3417187 112.759429 11.3395804 112.796022 11.3374974 112.832783 11.3359781 112.895245 11.3334167 112.958071 11.3318974 113.021265 11.3313349 113.043051 11.3310813 113.064641 11.3302513 113.086513 11.3302086 113.108384 11.3302513 113.129973 11.3310813 113.151761 11.3313349 113.214954 11.3318974 113.277781 11.3334179 113.340242 11.3359781 113.377004 11.3374974 113.413569 11.3395804 113.450105 11.3417187 113.514875 11.3456161 113.579391 11.3501476 113.643344 11.3561844 113.658291 11.3575354 113.673322 11.3586893 113.68824 11.3601383 116.51965 11.6503631 118.517223 14.0272092 118.517223 17.2251977 118.517224 19.9333579 117.084025 22.0512461 114.925752 22.8131896zM77.0798426 8.56249683C77.0772242 8.56075159 77.0749448 8.55862709 77.0723264 8.55689683 75.5284196 7.53336369 73.6143625 6.9923562 71.5365384 6.9923562 71.5003679 6.9923562 71.4650702 6.99441037 71.4290116 6.99472046 71.3929541 6.99441037 71.3576552 6.9923562 71.3214847 6.9923562 69.2436607 6.9923562 67.3296035 7.53336369 65.7857255 8.55689683 65.7831072 8.55862709 65.7808278 8.5607389 65.7782382 8.56246916 62.998621 10.3112334 61.301362 13.4012092 61.301362 17.2251977 61.301362 21.2310594 63.1634566 24.4316945 66.1816594 26.1283942 67.5888915 26.9588807 69.259508 27.4540427 71.060156 27.4553372 74.3489769 27.4577014 76.3347132 25.5946905 76.959225 24.7814133L76.959225 25.4825545C76.959225 26.2910893 77.6147998 26.9465395 78.4234857 26.9465395L80.0924132 26.9465395C80.9011003 26.9465395 81.55666 26.2910882 81.55666 25.4825545L81.55666 17.2251839C81.5566623 13.4012242 79.8594321 10.3112622 77.0798426 8.56249683zM73.2682512 22.8131896C72.7335454 22.990068 72.1890728 23.0924669 71.6477813 23.1150801 71.6082326 23.1164726 71.568488 23.1174305 71.5286292 23.1180207 71.4954425 23.1186963 71.4621994 23.1198928 71.4290127 23.1199631 71.3958537 23.1198928 71.3625829 23.1186963 71.3293963 23.1180207 71.2895386 23.1174294 71.2497928 23.1164726 71.2102442 23.1150801 70.6689526 23.0924669 70.124479 22.9900692 69.5897743 22.8131896 67.4315305 22.0512461 65.9983027 19.9333579 65.9983027 17.2251977 65.9983027 14.0272092 67.9958753 11.6503631 70.8272856 11.3601383 70.8422037 11.3586893 70.8572359 11.3575354 70.8721817 11.3561844 70.9361061 11.3501476 71.0006508 11.3456173 71.0654204 11.3417187 71.1019563 11.3395804 71.1385212 11.3374974 71.1752831 11.3359781 71.2377444 11.3334167 71.3005713 11.3318974 71.3637647 11.3313349 71.3855509 11.3310813 71.4071412 11.3302513 71.4290127 11.3302086 71.4508843 11.3302513 71.4724734 11.3310813 71.4942607 11.3313349 71.5574542 11.3318974 71.620281 11.3334179 71.6827423 11.3359781 71.7195043 11.3374974 71.7560691 11.3395804 71.7926051 11.3417187 71.8573746 11.3456161 71.9219182 11.3501476 71.9858438 11.3561844 72.0007907 11.3575354 72.0158218 11.3586893 72.0307398 11.3601383 74.8621501 11.6503631 76.8597227 14.0272092 76.8597227 17.2251977 76.8597227 19.9333579 75.4265227 22.0512461 73.2682512 22.8131896z"/>
    </g>
  </g>
</svg>
