<svg xmlns="http://www.w3.org/2000/svg" width="102" height="28" viewBox="0 0 102 28" xmlns:xlink="http://www.w3.org/1999/xlink">
  <defs>
    <rect id="a" width="102" height="50"/>
    <polygon id="c" points="0 .043 101.502 .043 101.502 28 0 28"/>
    <polygon id="e" points="0 .043 101.502 .043 101.502 28 0 28"/>
  </defs>
  <g fill="none" fill-rule="evenodd" transform="translate(0 -9)">
    <mask id="b" fill="white">
      <use xlink:href="#a"/>
    </mask>
    <g transform="translate(0 9)" mask="url(#b)">
      <path fill="#FFFFFF" d="M21.6152049 10.9334638L21.6152049 9.57516596 21.6152049 8.05005957C21.6152049 7.57822979 21.2451265 7.19218723 20.7928085 7.19218723L14.116168 7.19218723C13.4873774 7.19218723 12.9777581 7.7255773 12.9777581 8.3836766 12.9777581 9.0415773 13.4873774 9.57516596 14.1163583 9.57516596L18.4741075 9.57516596 18.4741075 10.7785702C18.4741075 11.7222298 17.3157088 12.4943149 15.8997402 12.4943149L5.66623516 12.4943149C4.25026652 12.4943149 3.09186786 11.7222298 3.09186786 10.7785702L3.09186786 3.96325106C3.09186786 3.01959149 4.25026652 2.24750638 5.66623516 2.24750638L10.5870974 2.24750638C11.1623942 2.24750638 11.6287996 1.75919433 11.6287996 1.15729362 11.6287996.555194326 11.1623942.0670808511 10.5870974.0670808511L5.35022172.0670808511C2.40767973.0670808511.0000761478168 1.67559149.0000761478168 3.64154894L.0000761478168 10.9334638C.0000761478168 12.8994213 2.40767973 14.5079319 5.35022172 14.5079319L16.264869 14.5079319C19.207411 14.5079319 21.6152049 12.8994213 21.6152049 10.9334638M27.7622374 10.8440227L27.7622374 6.88827801C27.7622374 5.94461844 29.1129093 5.17253333 30.7639843 5.17253333L37.6926741 5.17253333C39.3437492 5.17253333 40.6944211 5.94461844 40.6944211 6.88827801L40.6944211 10.8440227C40.6944211 11.7876823 39.3437492 12.5597674 37.6926741 12.5597674L30.7639843 12.5597674C29.1129093 12.5597674 27.7622374 11.7876823 27.7622374 10.8440227M24.7964703 6.86444823L24.7964703 10.8678525C24.7964703 12.9124482 27.5553057 14.5852993 30.9273214 14.5852993L37.5295274 14.5852993C40.9013527 14.5852993 43.6601881 12.9124482 43.6601881 10.8678525L43.6601881 6.86444823C43.6601881 4.81985248 40.9013527 3.14700142 37.5295274 3.14700142L30.9273214 3.14700142C27.5553057 3.14700142 24.7964703 4.81985248 24.7964703 6.86444823"/>
      <g>
        <mask id="d" fill="white">
          <use xlink:href="#c"/>
        </mask>
        <path fill="#FFFFFF" d="M49.9707671,7.19214752 L49.9707671,2.06874326 L56.9337234,2.06874326 L62.9139922,2.06874326 C64.401159,2.06874326 65.6178108,2.78621844 65.6178108,3.66315461 L65.6178108,5.59773617 C65.6178108,6.47467234 64.401159,7.19214752 62.9139922,7.19214752 L56.9337234,7.19214752 L49.9707671,7.19214752 Z M46.7725588,2.30704113 L46.7725588,13.638105 C46.7725588,14.188573 47.2043169,14.638956 47.7320213,14.638956 L49.0113046,14.638956 C49.539009,14.638956 49.9707671,14.188573 49.9707671,13.638105 L49.9707671,9.4559773 L52.7691993,9.4559773 L56.9337234,9.4559773 L62.4194121,9.4559773 C65.8868029,9.4559773 68.7236898,7.78312624 68.7236898,5.7385305 L68.7236898,3.76065816 C68.7236898,1.71606241 65.8868029,0.0432113475 62.4194121,0.0432113475 L52.7691993,0.0432113475 L47.7320213,0.0432113475 C47.2043169,0.0432113475 46.7725588,0.493594326 46.7725588,1.04406241 L46.7725588,2.30704113 Z" mask="url(#d)"/>
      </g>
      <path fill="#FFFFFF" d="M71.398953 6.86442837L71.398953 9.63464113 71.398953 10.8678326 71.398953 13.5786695C71.398953 14.128939 71.8307111 14.579322 72.3584155 14.579322L73.4052576 14.579322C73.9329619 14.579322 74.36472 14.128939 74.36472 13.5786695L74.36472 10.8440028 74.36472 9.63464113 74.36472 6.88825816C74.36472 5.94459858 75.7153919 5.17251348 77.366467 5.17251348L79.5642833 5.17251348C80.1016965 5.17251348 80.5374524 4.71895319 80.5374524 4.15974752 80.5374524 3.60034326 80.1016965 3.14698156 79.5642833 3.14698156L77.5296137 3.14698156C74.1577884 3.14698156 71.398953 4.81983262 71.398953 6.86442837M85.6041187 10.8440227L85.6041187 6.88827801C85.6041187 5.94461844 86.9547906 5.17253333 88.6058656 5.17253333L95.5345554 5.17253333C97.1856305 5.17253333 98.5363024 5.94461844 98.5363024 6.88827801L98.5363024 10.8440227C98.5363024 11.7876823 97.1856305 12.5597674 95.5345554 12.5597674L88.6058656 12.5597674C86.9547906 12.5597674 85.6041187 11.7876823 85.6041187 10.8440227M82.6383516 6.86444823L82.6383516 10.8678525C82.6383516 12.9124482 85.397187 14.5852993 88.7690123 14.5852993L95.3714087 14.5852993C98.743234 14.5852993 101.502069 12.9124482 101.502069 10.8678525L101.502069 6.86444823C101.502069 4.81985248 98.743234 3.14700142 95.3714087 3.14700142L88.7690123 3.14700142C85.397187 3.14700142 82.6383516 4.81985248 82.6383516 6.86444823"/>
      <mask id="f" fill="white">
        <use xlink:href="#e"/>
      </mask>
      <polygon fill="#FFFFFF" points="55.565 18.468 43.115 18.468 43.115 28 55.565 28" mask="url(#f)"/>
      <polygon fill="#FFFFFF" points="58.466 28 70.916 28 70.916 18.468 58.466 18.468" mask="url(#f)"/>
      <polygon fill="#FFFFFF" points="73.544 28 85.994 28 85.994 18.468 73.544 18.468" mask="url(#f)"/>
      <polygon fill="#FFFFFF" points="88.895 28 101.345 28 101.345 18.468 88.895 18.468" mask="url(#f)"/>
    </g>
  </g>
</svg>
