<svg xmlns="http://www.w3.org/2000/svg" width="110" height="34" viewBox="0 0 110 34" xmlns:xlink="http://www.w3.org/1999/xlink">
  <defs>
    <rect id="a" width="110" height="50"/>
  </defs>
  <g fill="none" fill-rule="evenodd" transform="translate(0 -8)">
    <mask id="b" fill="white">
      <use xlink:href="#a"/>
    </mask>
    <path fill="#FFFFFF" d="M39.5345213,22.7316514 L39.5345213,22.3305728 L41.060787,20.5616539 L41.4329321,20.5616539 C42.7896127,21.7301141 44.0450133,22.3978056 45.9787543,22.3978056 C47.2341549,22.3978056 48.4872002,21.9294942 48.4872002,20.6938011 C48.4872002,20.2950409 48.3529454,19.9264195 48.1150552,19.6922638 C46.5204844,18.1250434 40.0079463,18.9248822 40.0079463,13.9519712 C40.0079463,11.7819737 41.6025171,9.37782048 45.4346688,9.37782048 C47.775885,9.37782048 49.5400409,10.1776593 50.9296964,11.2464295 L50.9980015,11.6475081 L49.6413209,13.516117 C49.5047107,13.6830399 49.4387609,13.6830399 49.1655405,13.516117 C48.3859203,12.9156583 47.0292396,12.1158195 45.3333888,12.1158195 C43.9437333,12.1158195 43.0275029,12.7487354 43.0275029,13.7502727 C43.0275029,16.7224275 51.5067568,14.8190429 51.5067568,20.494421 C51.5067568,23.23242 49.3351256,25.1358046 45.9104492,25.1358046 C43.5032832,25.1358046 41.3999572,24.3011902 39.5345213,22.7316514 L39.5345213,22.7316514 Z M59.3076703,13.0153484 C57.4422345,13.0153484 56.3917491,13.8499628 55.7134088,14.7193528 L55.7134088,13.4836598 L55.3742387,13.0825812 L52.8964123,13.0825812 C52.6255472,13.0825812 52.6938523,13.3167369 52.6938523,13.516117 L52.6938523,28.0384081 L52.8634374,28.4070295 L55.3389085,28.4070295 L55.7463837,28.0059509 L55.7463837,23.499033 C56.424724,24.3011902 57.6118196,25.1358046 59.3406452,25.1358046 C62.0893367,25.1358046 64.8686477,23.13273 64.8686477,19.0918051 C64.8356728,14.7865857 61.7831414,13.0153484 59.3076703,13.0153484 L59.3076703,13.0153484 Z M58.62933,22.4974957 C56.7638942,22.4974957 55.5084935,20.860724 55.5084935,19.0918051 C55.5084935,17.3228862 56.6955891,15.6536573 58.62933,15.6536573 C60.1885706,15.6536573 61.7148363,16.8545748 61.7148363,19.1265807 C61.7148363,21.1296553 60.3581557,22.4974957 58.62933,22.4974957 L58.62933,22.4974957 Z M77.6558337,16.6876519 C77.3519937,15.9550459 76.9115436,15.3198116 76.3674581,14.7865857 C75.825728,14.2510414 75.1473877,13.8175056 74.4007423,13.4836598 C73.621122,13.1822713 72.8061715,13.0153484 71.9252712,13.0153484 C71.0090407,13.0153484 70.1611153,13.1822713 69.4144699,13.4836598 C68.6348496,13.8175056 67.9894842,14.2510414 67.4147792,14.7865857 C66.8377189,15.3522688 66.3972687,15.9875031 66.0557432,16.7224275 C65.7519033,17.4573518 65.5493434,18.2571907 65.5493434,19.0918051 L65.5493434,19.1590379 C65.5493434,19.9936524 65.7189284,20.7958096 66.0557432,21.5284156 C66.3619385,22.2633399 66.8377189,22.8985743 67.379449,23.4318001 C67.9211791,23.9673444 68.5995194,24.4008802 69.3814951,24.734726 C70.1611153,25.0337962 70.9760659,25.2007191 71.889941,25.2007191 C72.8061715,25.2007191 73.6540969,25.0337962 74.4007423,24.734726 C75.1803626,24.4008802 75.825728,23.9673444 76.4027884,23.4318001 C76.9774933,22.8637987 77.3519937,22.2308827 77.6911639,21.4959583 C77.9950038,20.761034 78.131614,19.9611951 78.131614,19.1265807 L78.131614,19.0918051 C78.0633089,18.2247334 77.9620289,17.4225762 77.6558337,16.6876519 L77.6558337,16.6876519 Z M71.889941,22.5299529 C69.7206652,22.5299529 68.5665445,20.6613439 68.5665445,19.0593479 C68.5665445,17.0887305 69.9562,15.6536573 71.8239912,15.6536573 C73.4515369,15.6536573 75.1473877,16.9218076 75.1473877,19.1265807 C75.1473877,21.2618026 73.5857918,22.5299529 71.889941,22.5299529 L71.889941,22.5299529 Z M82.8116911,21.1621126 L82.8116911,15.8530374 L85.6263323,15.8530374 L85.8642225,15.6212001 L85.8642225,13.516117 L85.6616625,13.2842797 L82.8116911,13.2842797 L82.8116911,10.4790479 L82.540826,10.2124349 L80.0300247,10.2124349 L79.7921346,10.4465906 L79.7921346,13.2842797 L78.5390893,13.2842797 L78.3695042,13.4512026 L78.3695042,15.6861146 L78.5720641,15.887813 L79.7921346,15.887813 L79.7921346,21.6953385 C79.7921346,23.865336 80.9462552,25.1358046 83.2874715,25.1358046 C84.373287,25.1358046 85.0162971,24.9016489 85.6946374,24.5678031 L85.8642225,24.3011902 L85.8642225,22.2981155 C85.8642225,22.0291842 85.6946374,21.996727 85.4567472,22.0964171 C85.2212124,22.1961071 84.7124572,22.4302628 84.0670917,22.4302628 C83.0495813,22.4302628 82.8116911,21.8622613 82.8116911,21.1621126 L82.8116911,21.1621126 Z M89.8659593,24.9016489 L90.1038494,24.6674932 L90.1038494,13.516117 L89.8659593,13.2842797 L87.3221831,13.2842797 L87.0842929,13.516117 L87.0842929,24.6674932 L87.3221831,24.9016489 L89.8659593,24.9016489 L89.8659593,24.9016489 Z M88.612914,8.14212745 C87.5600733,8.14212745 86.7121479,8.97674188 86.7121479,10.0107364 C86.7121479,11.0470493 87.5600733,11.8816638 88.612914,11.8816638 C89.6633993,11.8816638 90.5113247,11.0470493 90.5113247,10.0107364 C90.5113247,8.97674188 89.6633993,8.14212745 88.612914,8.14212745 L88.612914,8.14212745 Z M95.5659022,24.9016489 L95.7684621,24.6999504 L95.7684621,15.8530374 L98.2109583,15.8530374 L101.94183,24.6999504 C101.635635,25.3351847 101.296465,25.8034962 100.549819,25.8034962 C99.939784,25.8034962 99.4310287,25.5345648 99.1931386,25.4348748 L98.7880187,25.5345648 L98.006043,27.2037937 L98.006043,27.6721051 C98.8539684,28.0731837 99.5323087,28.3397967 100.787709,28.3397967 C103.432766,28.3397967 104.078131,26.5361022 104.756471,25.0337962 L109.198658,13.6505827 C109.302293,13.416427 109.302293,13.2495041 109.029073,13.2495041 L106.384017,13.2495041 L106.113152,13.516117 L103.366816,21.2293454 L100.448539,13.4836598 L100.210649,13.2495041 L95.7331319,13.2495041 L95.7331319,12.9504339 C95.7331319,12.0138111 96.0393272,11.4133523 97.0921679,11.4133523 C97.633898,11.4133523 98.1426532,11.547818 98.3805434,11.6150508 C98.6514085,11.7147409 98.8209935,11.6799653 98.8209935,11.4481279 L98.8209935,9.31058765 L98.6160782,9.07643194 C98.2769081,9.00919911 97.3630329,8.77736177 96.5151075,8.77736177 C93.6651361,8.77736177 92.7842358,10.5115051 92.7842358,12.6815026 L92.7842358,13.2170469 L91.56181,13.2170469 L91.3592501,13.416427 L91.3592501,15.6212001 L91.56181,15.8205802 L92.7842358,15.8205802 L92.7842358,24.635036 L92.9867958,24.8344161 L95.5659022,24.8344161 L95.5659022,24.9016489 L95.5659022,24.9016489 Z M17.3871812,0.463674684 C8.02467168,0.463674684 0.426318043,7.94274733 0.426318043,17.1559633 C0.426318043,26.3691793 8.02467168,33.8482519 17.3871812,33.8482519 C26.7473354,33.8482519 34.345689,26.3691793 34.345689,17.1559633 C34.345689,7.94274733 26.7473354,0.463674684 17.3871812,0.463674684 L17.3871812,0.463674684 Z M24.2718643,25.0337962 C24.0009992,25.0337962 23.7960839,24.9341061 23.5581938,24.8019588 C21.1180529,23.3321101 18.0301913,22.5647285 14.7750999,22.5647285 C12.9426389,22.5647285 11.1455082,22.7988842 9.41668253,23.13273 C9.14346212,23.1976444 8.80429197,23.2996529 8.56875714,23.2996529 C7.9233917,23.2996529 7.48294157,22.7988842 7.48294157,22.2633399 C7.48294157,21.5631912 7.89041683,21.2293454 8.39917206,21.1296553 C10.5001427,20.6613439 12.5704939,20.394731 14.7397697,20.394731 C18.4376665,20.394731 21.761063,21.2293454 24.6110344,22.8985743 C25.0185097,23.13273 25.2893748,23.3993429 25.2893748,23.9998016 C25.3223496,24.6002604 24.8135944,25.0337962 24.2718643,25.0337962 L24.2718643,25.0337962 Z M26.1019699,20.6288867 C25.7298249,20.6288867 25.4919347,20.494421 25.2540445,20.3274981 C22.5077084,18.7255021 18.6755567,17.656732 14.4689046,17.656732 C12.3326037,17.656732 10.4671679,17.9581205 8.94090217,18.3568807 C8.60173201,18.4588892 8.43214694,18.5585792 8.12595166,18.5585792 C7.38166159,18.5585792 6.80460126,17.9581205 6.80460126,17.2556534 C6.80460126,16.5555046 7.14377141,16.0547359 7.8550866,15.8530374 C9.75349734,15.3522688 11.7225685,14.9535086 14.5372097,14.9535086 C18.9793967,14.9535086 23.2543538,16.0547359 26.6460554,18.023035 C27.2231157,18.3568807 27.4256757,18.7579593 27.4256757,19.3584181 C27.4256757,20.0261096 26.8486153,20.6288867 26.1019699,20.6288867 L26.1019699,20.6288867 Z M28.205296,15.4867344 C27.8661258,15.4867344 27.6635659,15.4195016 27.3243957,15.2201215 C24.2718643,13.416427 19.4881519,12.4148897 14.8763799,12.4148897 C12.5704939,12.4148897 10.2292777,12.6490454 8.09297678,13.2170469 C7.8550866,13.2842797 7.55124667,13.3839697 7.21207651,13.3839697 C6.29584602,13.3839697 5.61750571,12.6815026 5.61750571,11.7819737 C5.61750571,10.8801265 6.19456604,10.3793578 6.80460126,10.1776593 C9.21176722,9.47751054 11.9251285,9.14366477 14.843405,9.14366477 C19.827322,9.14366477 25.0514846,10.1452021 28.8836363,12.3476568 C29.3923915,12.6490454 29.7668919,13.0825812 29.7668919,13.8499628 C29.8328416,14.8190429 29.0861962,15.4867344 28.205296,15.4867344 L28.205296,15.4867344 Z" transform="translate(0 8)" mask="url(#b)"/>
  </g>
</svg>
