<svg xmlns="http://www.w3.org/2000/svg" width="134" height="28" viewBox="0 0 134 28" xmlns:xlink="http://www.w3.org/1999/xlink">
  <defs>
    <rect id="a" width="134" height="50"/>
    <polygon id="c" points=".088 27.2 16.903 27.2 16.903 .204 .088 .204 .088 27.2"/>
    <polygon id="e" points=".204 18.4 16.781 18.4 16.781 .237 .204 .237"/>
    <polygon id="g" points=".024 18.4 16.601 18.4 16.601 .237 .024 .237 .024 18.4"/>
  </defs>
  <g fill="none" fill-rule="evenodd" transform="translate(0 -10)">
    <mask id="b" fill="white">
      <use xlink:href="#a"/>
    </mask>
    <g transform="translate(0 10)" mask="url(#b)">
      <path fill="#FFFFFF" d="M12.5325425,0.22488 L12.5325425,4.43901333 L10.2868874,4.43901333 C10.2868874,4.43901333 8.2584046,4.13794667 8.2584046,6.16994667 L8.2584046,9.48114667 L12.5325425,9.48114667 L12.0255502,14.0550133 L8.2584046,14.0550133 L8.2584046,26.8646133 L3.33249272,26.8646133 L3.33249272,13.9966133 L-5.13409958e-05,13.9966133 L-5.13409958e-05,9.48114667 L3.47727433,9.48114667 L3.47727433,5.64301333 C3.47727433,5.64301333 3.0426728,3.53608 4.85372644,1.80514667 C6.66478008,0.07448 9.05521686,0.22488 9.05521686,0.22488 L12.5325425,0.22488 Z" transform="translate(0 .045)"/>
      <path fill="#FFFFFF" d="M24.1449261,20.0238667 C24.1449261,21.7694667 22.7166195,23.4105333 20.9548533,23.4105333 C19.1928303,23.4105333 17.7645238,21.7694667 17.7645238,20.0238667 L17.7645238,16.7129333 C17.7645238,14.9673333 19.1928303,13.3265333 20.9548533,13.3265333 C22.7166195,13.3265333 24.1449261,14.9673333 24.1449261,16.7129333 L24.1449261,20.0238667 Z M24.4101023,9.60146667 L24.4101023,11.8977333 C23.1532747,10.1796 21.3956157,9.11213333 19.4508188,9.11213333 C15.6300218,9.11213333 12.5326195,12.6116 12.5326195,18.3118667 C12.5326195,23.9748 15.6300218,27.5116 19.4508188,27.5116 C21.4140985,27.5116 23.1863897,26.4241333 24.4457843,24.6772 L24.4131828,26.9097333 L29.1581176,26.9097333 L29.1581176,9.60146667 L24.4101023,9.60146667 Z"/>
      <g transform="translate(62.893 .312)">
        <mask id="d" fill="white">
          <use xlink:href="#c"/>
        </mask>
        <path fill="#FFFFFF" d="M5.29025326,16.2884 C5.29025326,14.5428 6.71855977,12.9017333 8.48032605,12.9017333 C10.242349,12.9017333 11.6706556,14.5428 11.6706556,16.2884 L11.6706556,19.5993333 C11.6706556,21.3449333 10.242349,22.9857333 8.48032605,22.9857333 C6.71855977,22.9857333 5.29025326,21.3449333 5.29025326,19.5993333 L5.29025326,16.2884 Z M5.02507701,26.7108 L5.02507701,24.4145333 C6.2819046,26.1326667 8.0395636,27.2001333 9.98436054,27.2001333 C13.8051575,27.2001333 16.9025598,23.7006667 16.9025598,18.0001333 C16.9025598,12.3374667 13.8051575,8.8004 9.98436054,8.8004 C8.02108084,8.8004 6.24878966,9.88813333 4.98939502,11.6348 L5.02199655,0.204133333 L0.08761341,0.780933333 L0.08761341,26.6318667 L5.02507701,26.7108 Z" mask="url(#d)"/>
      </g>
      <path fill="#FFFFFF" d="M39.8795038,23.3139733 C39.8795038,23.3139733 36.0761628,23.53984 36.0761628,18.4225067 L36.0761628,18.1427733 C36.0761628,13.02544 39.8795038,13.2513067 39.8795038,13.2513067 C42.4511743,13.21344 43.3568295,14.15424 43.3568295,14.15424 L44.5520479,10.4291733 C42.4873697,8.84890667 36.2573966,8.58544 33.4682969,11.2569067 C31.0550134,13.56864 31.0555268,17.3145067 31.0994234,18.2825067 C31.0555268,19.2505067 31.0550134,22.99664 33.4682969,25.3081067 C36.2573966,27.9795733 42.4873697,27.7163733 44.5520479,26.1361067 L43.3568295,22.41104 C43.3568295,22.41104 42.4511743,23.3515733 39.8795038,23.3139733"/>
      <path fill="#FFFFFF" d="M50.2387307,16.6376 C50.2387307,16.6376 49.9851061,12.7997333 53.3176502,12.7997333 C56.6499375,12.7997333 56.396313,16.6376 56.396313,16.6376 L50.2387307,16.6376 Z M60.9240755,20.1368 C60.9240755,20.1368 62.9161061,9.30026667 53.390041,9.2416 C43.8637192,9.18266667 45.2401713,19.0456 45.2401713,19.0456 C45.4576004,25.0282667 48.1016617,26.7592 52.6294241,27.3234667 C57.1569299,27.888 60.5980602,26.0818667 60.5980602,26.0818667 L59.5476234,22.5826667 C59.5476234,22.5826667 55.8893207,23.7490667 52.9916349,23.4856 C50.093949,23.2224 50.3111215,20.1368 50.3111215,20.1368 L60.9240755,20.1368 Z"/>
      <g transform="translate(81.119 9.112)">
        <mask id="f" fill="white">
          <use xlink:href="#e"/>
        </mask>
        <path fill="#FFFFFF" d="M11.7235625,10.8206133 C11.7235625,12.5662133 10.2580337,14.20728 8.45006054,14.20728 C6.64234406,14.20728 5.17655862,12.5662133 5.17655862,10.8206133 L5.17655862,7.50968 C5.17655862,5.76408 6.64234406,4.12328 8.45006054,4.12328 C10.2580337,4.12328 11.7235625,5.76408 11.7235625,7.50968 L11.7235625,10.8206133 Z M8.49241686,0.236613333 C2.29119464,0.236613333 0.204183142,4.12328 0.204183142,9.31821333 C0.204183142,14.82968 2.89342452,18.40008 8.49241686,18.40008 C13.0699801,18.40008 16.7809073,15.2051467 16.7809073,9.31821333 C16.7809073,4.30274667 14.4128038,0.236613333 8.49241686,0.236613333 L8.49241686,0.236613333 Z" mask="url(#f)"/>
      </g>
      <g transform="translate(99.602 9.112)">
        <mask id="h" fill="white">
          <use xlink:href="#g"/>
        </mask>
        <path fill="#FFFFFF" d="M11.5433812,10.8206133 C11.5433812,12.5662133 10.0778525,14.20728 8.26987931,14.20728 C6.46216284,14.20728 4.99637739,12.5662133 4.99637739,10.8206133 L4.99637739,7.50968 C4.99637739,5.76408 6.46216284,4.12328 8.26987931,4.12328 C10.0778525,4.12328 11.5433812,5.76408 11.5433812,7.50968 L11.5433812,10.8206133 Z M8.31223563,0.236613333 C2.11101341,0.236613333 0.0240019157,4.12328 0.0240019157,9.31821333 C0.0240019157,14.82968 2.7132433,18.40008 8.31223563,18.40008 C12.8897989,18.40008 16.6007261,15.2051467 16.6007261,9.31821333 C16.6007261,4.30274667 14.2326226,0.236613333 8.31223563,0.236613333 L8.31223563,0.236613333 Z" mask="url(#h)"/>
      </g>
      <polygon fill="#FFFFFF" points="15.754 26.673 10.335 17.959 15.513 9.245 10.215 9.245 5.158 17.046 5.158 .114 .181 .656 .181 26.673 5.158 26.673 5.158 17.808 10.616 26.673" transform="translate(117.828 .312)"/>
    </g>
  </g>
</svg>
