<svg xmlns="http://www.w3.org/2000/svg" width="133" height="20" viewBox="0 0 133 20" xmlns:xlink="http://www.w3.org/1999/xlink">
  <defs>
    <rect id="a" width="133" height="50"/>
    <polygon id="c" points=".017 .03 132.827 .03 132.827 19.72 .017 19.72"/>
  </defs>
  <g fill="none" fill-rule="evenodd" transform="translate(0 -15)">
    <mask id="b" fill="white">
      <use xlink:href="#a"/>
    </mask>
    <g transform="translate(0 15)" mask="url(#b)">
      <path fill="#FFFFFF" d="M27.7848635 8.86136569L28.5929611 8.86136569C30.3321944 8.86136569 32.0463746 8.86136569 32.0463746 6.5140724 32.0463746 4.08992801 30.4543972 4.06440765 28.5929611 4.06440765L27.7848635 4.06440765 27.7848635 8.86136569 27.7848635 8.86136569zM22.9841566.0327704648L30.3321944.0327704648C34.2997506.0327704648 37.0430514 1.94650761 37.0430514 6.36066022 37.0430514 10.9027046 34.6916905 12.8930029 30.5033897 12.8930029L27.7848635 12.8930029 27.7848635 19.2722234 22.9841566 19.2722234 22.9841566.0327704648 22.9841566.0327704648zM46.7307588 10.8261436C46.5105709 9.57593583 45.40824 8.75928425 44.2082025 8.75928425 42.91018 8.75928425 41.8323453 9.47385438 41.5628866 10.8261436L46.7307588 10.8261436 46.7307588 10.8261436zM50.8700671 13.5054916L41.4893979 13.5054916C41.4893979 15.3937084 42.4447514 16.4142328 44.2816912 16.4142328 45.2367663 16.4142328 45.9226611 16.0827581 46.412586 15.2150658L50.6985934 15.2150658C49.9882023 18.3027396 47.1716911 19.7060695 44.3061875 19.7060695 40.1423829 19.7060695 37.0319168 17.2564048 37.0319168 12.7398807 37.0319168 8.37676882 39.8974205 5.74846154 43.9877363 5.74846154 48.3475108 5.74846154 50.8700671 8.55541135 50.8700671 13.0206047L50.8700671 13.5054916 50.8700671 13.5054916zM56.7416495 8.3257281L56.790642 8.3257281C57.6480105 6.71794529 59.1175067 6.00366516 60.8564615 6.00366516L61.71383 6.00366516 61.71383 10.4688585C61.101424 10.1118634 60.5137925 10.0350123 59.8278977 10.0350123 57.3540555 10.0350123 56.7416495 11.7448766 56.7416495 13.9903784L56.7416495 19.2722234 52.2841684 19.2722234 52.2841684 6.18201769 56.7416495 6.18201769 56.7416495 8.3257281M72.4409575 10.4433381C71.7798373 9.9332209 70.9959575 9.5248951 70.1388674 9.5248951 68.4244088 9.5248951 67.0771154 10.9027046 67.0771154 12.7143603 67.0771154 14.6025771 68.3751379 15.9293459 70.2123561 15.9293459 70.9959575 15.9293459 71.8530477 15.5978712 72.4409575 15.0364233L72.4409575 18.965979C71.4613861 19.4763863 70.3838298 19.7060695 69.3059951 19.7060695 65.583123 19.7060695 62.4726568 16.8225586 62.4726568 12.8674825 62.4726568 8.6572028 65.5586267 5.74846154 69.5019651 5.74846154 70.5305289 5.74846154 71.5593711 6.00366516 72.4409575 6.5140724L72.4409575 10.4433381M77.9907483 12.7398807C77.9907483 14.3987042 79.0438084 15.6744323 80.856252 15.6744323 82.6686956 15.6744323 83.7220341 14.3987042 83.7220341 12.7398807 83.7220341 11.1323879 82.6686956 9.78009872 80.856252 9.78009872 79.0438084 9.78009872 77.9907483 11.1323879 77.9907483 12.7398807L77.9907483 12.7398807zM88.4244776 12.7398807C88.4244776 17.1798437 84.8975754 19.7060695 80.856252 19.7060695 76.8394249 19.7060695 73.2880264 17.205364 73.2880264 12.7398807 73.2880264 8.27468737 76.8149287 5.74846154 80.856252 5.74846154 84.8975754 5.74846154 88.4244776 8.27468737 88.4244776 12.7398807L88.4244776 12.7398807z"/>
      <polygon fill="#FFFFFF" points="89.63 .033 94.088 .033 94.088 19.272 89.63 19.272"/>
      <path fill="#FFFFFF" d="M99.9527435,12.7398807 C99.9527435,14.3987042 101.005804,15.6744323 102.818247,15.6744323 C104.630691,15.6744323 105.683751,14.3987042 105.683751,12.7398807 C105.683751,11.1323879 104.630691,9.78009872 102.818247,9.78009872 C101.005804,9.78009872 99.9527435,11.1323879 99.9527435,12.7398807 L99.9527435,12.7398807 Z M109.994533,19.2722234 L105.536773,19.2722234 L105.536773,17.8178527 L105.488059,17.8178527 C104.70418,19.1191012 103.161195,19.7060695 101.691698,19.7060695 C97.9685479,19.7060695 95.3480066,16.4652735 95.3480066,12.7143603 C95.3480066,8.96344714 97.9198337,5.74846154 101.642428,5.74846154 C103.087706,5.74846154 104.606195,6.3096195 105.536773,7.45803579 L105.536773,6.18201769 L109.994533,6.18201769 L109.994533,19.2722234 L109.994533,19.2722234 Z"/>
      <polyline fill="#FFFFFF" points="115.977 19.272 111.519 19.272 111.519 2.253 115.977 2.253 115.977 6.182 118.499 6.182 118.499 10.01 115.977 10.01 115.977 19.272"/>
      <g>
        <mask id="d" fill="white">
          <use xlink:href="#c"/>
        </mask>
        <path fill="#FFFFFF" d="M128.68795 10.8261436C128.467484 9.57593583 127.365431 8.75928425 126.165115 8.75928425 124.867093 8.75928425 123.789536 9.47385438 123.519799 10.8261436L128.68795 10.8261436 128.68795 10.8261436zM132.82698 13.5054916L123.446589 13.5054916C123.446589 15.3937084 124.401664 16.4142328 126.238604 16.4142328 127.193957 16.4142328 127.879574 16.0827581 128.369499 15.2150658L132.655784 15.2150658C131.945393 18.3027396 129.128604 19.7060695 126.2631 19.7060695 122.099296 19.7060695 118.98883 17.2564048 118.98883 12.7398807 118.98883 8.37676882 121.854333 5.74846154 125.944649 5.74846154 130.304424 5.74846154 132.82698 8.55541135 132.82698 13.0206047L132.82698 13.5054916 132.82698 13.5054916zM15.4362518 11.7686569C15.4362518 16.1607692 11.9808897 19.7202797 7.71826507 19.7202797 3.45564044 19.7202797 0 16.1607692 0 11.7686569 0 6.72635541 7.71826507.0298704237 7.71826507.0298704237 7.71826507.0298704237 15.4362518 6.72635541 15.4362518 11.7686569" mask="url(#d)"/>
      </g>
    </g>
  </g>
</svg>
