<svg xmlns="http://www.w3.org/2000/svg" width="143" height="32" viewBox="0 0 143 32" xmlns:xlink="http://www.w3.org/1999/xlink">
  <defs>
    <rect id="a" width="144" height="50"/>
    <polygon id="c" points="31.302 13.149 0 13.149 0 .198 31.302 .198"/>
    <polygon id="e" points="31.302 13.149 0 13.149 0 .198 31.302 .198"/>
  </defs>
  <g fill="none" fill-rule="evenodd" transform="translate(0 -9)">
    <mask id="b" fill="white">
      <use xlink:href="#a"/>
    </mask>
    <g transform="translate(0 9)" mask="url(#b)">
      <path fill="#FFFFFF" fill-rule="nonzero" d="M53.2007667,15.0031435 L50.6009472,14.4363243 C49.3000444,14.1529148 48.5838528,13.3465946 48.5838528,12.1650561 C48.5838528,10.6633846 49.910575,9.5305447 51.6702694,9.5305447 C54.1052417,9.5305447 54.8242139,11.3307942 54.987075,11.8832432 C55.0387139,12.0668607 55.165825,12.2225364 55.3366306,12.3083576 C55.5034639,12.3941788 55.6901583,12.4069522 55.8689083,12.3442827 L57.239325,11.8584948 C57.580846,11.7366077 57.7688518,11.36855 57.668325,11.0186445 C57.3147972,9.7692474 56.0158806,6.86330146 51.6106861,6.86330146 C48.3494917,6.86330146 45.5967417,9.370079 45.5967417,12.337896 C45.5967417,14.8885821 47.2618972,16.772657 50.053575,17.3833846 L52.5322417,17.9262536 C54.0238111,18.2415967 54.915575,19.1556923 54.915575,20.3691642 C54.915575,21.9179376 53.6484361,22.8799335 51.6067139,22.8799335 C49.2074917,22.8799335 48.051575,21.2992266 47.7695472,19.8183119 C47.7334691,19.6251628 47.6166642,19.4568493 47.4487687,19.3560764 C47.2808731,19.2553036 47.078023,19.2317565 46.8916861,19.2914096 L45.3862139,19.7744033 C45.0584758,19.8745466 44.8582324,20.2064811 44.9214639,20.5447983 C45.3901861,22.999684 47.3969528,25.6182287 51.6345194,25.6182287 C55.2146833,25.6182287 57.9146028,23.2751102 57.9146028,20.16958 C57.9146028,17.5470437 56.1926444,15.6629688 53.1876583,14.9963576 L53.2007667,15.0031435 Z M68.5812111,17.391368 C68.5891556,17.4432599 68.5653222,17.4831767 68.5494333,17.4991435 C68.5227953,17.5322678 68.4825767,17.5513734 68.4401972,17.5510353 L62.9188083,17.5510353 C62.8742706,17.5510458 62.8322134,17.5304296 62.8048056,17.4951518 C62.7794619,17.4654746 62.7691974,17.4256891 62.777,17.3873763 C63.0296333,16.2297879 64.0163333,15.0642162 65.6528889,15.0642162 C67.2608444,15.0642162 68.354,15.9304116 68.5788278,17.384183 L68.5812111,17.391368 Z M65.6314389,12.4736133 C62.7237722,12.4736133 59.7168,14.9165239 59.7168,19.008 C59.7168,20.9798919 60.3603,22.6643825 61.5797722,23.8738628 C62.7094722,24.995526 64.2530778,25.614237 65.9253833,25.614237 C68.4159667,25.614237 70.4338556,24.3061622 71.3236333,22.1175218 C71.3951333,21.937896 71.3911611,21.7383119 71.3141,21.5626778 C71.2372951,21.3903176 71.0927122,21.2577484 70.9148917,21.1966403 L69.6993917,20.7735218 C69.3620389,20.6570829 68.9923191,20.8210295 68.8505278,21.1499376 C68.3261944,22.3913514 67.3410833,23.0180457 65.923,23.0180457 C64.207,23.0180457 62.9001389,21.8564657 62.6737222,20.126869 C62.6680437,20.0875791 62.680638,20.0478453 62.7078833,20.0190936 C62.7237722,19.9991351 62.7595222,19.9672017 62.8151333,19.9672017 L70.8723889,19.9672017 C71.2338611,19.9672017 71.53575,19.6837921 71.5556111,19.3221455 C71.5635556,19.2063867 71.5675278,19.0786528 71.5675278,18.9525156 C71.5675278,14.9528482 69.2914444,12.4692225 65.6290556,12.4692225 L65.6314389,12.4736133 Z M79.3514944,22.1813888 C77.4170222,22.1813888 76.2134389,20.8321996 76.2134389,18.6607235 C76.2134389,16.5211809 77.4448278,15.1380624 79.3514944,15.1380624 C81.1985778,15.1380624 82.4395,16.5511185 82.4395,18.6587277 C82.4395,20.7639418 81.1981806,22.1793929 79.3514944,22.1793929 L79.3514944,22.1813888 Z M84.5074389,12.8408482 L83.0496333,12.8408482 C82.6722722,12.8408482 82.364425,13.1490062 82.364425,13.5473763 C82.3641604,13.6049046 82.3297785,13.6567301 82.2770361,13.6791019 C82.2492306,13.6910769 82.1936194,13.7070437 82.1435694,13.6591435 C81.3928194,12.9685821 80.3362083,12.6189106 79.0055139,12.6189106 C75.7073778,12.6189106 73.3133194,15.1616133 73.3133194,18.6623202 C73.3133194,22.1478586 75.7073778,24.6777879 79.0055139,24.6777879 C80.2249861,24.6777879 81.3292639,24.2754262 82.1157639,23.544948 C82.1674028,23.4970478 82.2230139,23.5090229 82.2508194,23.5209979 C82.2706806,23.5289813 82.3382083,23.5649064 82.3382083,23.6527235 L82.3382083,24.1556757 C82.3382083,26.5906029 81.277625,27.726237 79.0055139,27.726237 C77.5635972,27.726237 76.4315139,26.8281081 76.1256528,25.4401996 C76.0859306,25.2605738 75.9786806,25.1088898 75.8237639,25.0118919 C75.6688472,24.914894 75.4821528,24.884158 75.3034028,24.9240748 L73.8718139,25.2553846 C73.5060596,25.342842 73.2774276,25.7085989 73.3578083,26.0776715 C73.870225,28.6004158 76.1407472,30.2968815 79.0023361,30.2968815 C81.1354194,30.2968815 82.7600583,29.6442412 83.8325583,28.3569231 C84.7183639,27.2927401 85.1870861,25.8154179 85.1870861,24.0846237 L85.1870861,13.5397921 C85.1870861,13.1605821 84.881225,12.8532225 84.5038639,12.8532225 L84.5074389,12.8408482 Z M101.838244,12.4955676 C100.225522,12.4955676 98.9134972,13.1070936 98.0431833,14.2678753 C98.013268,14.3115759 97.9628095,14.336399 97.9101139,14.3333389 C97.8709278,14.33381 97.8345152,14.3130751 97.8147806,14.279052 C97.0850833,13.1454137 95.8254917,12.4947692 94.3589472,12.4947692 C93.1923056,12.4947692 92.0709472,12.906711 91.2812694,13.6264116 C91.2421465,13.6673327 91.1813902,13.6785795 91.130325,13.6543534 C91.0802793,13.6337034 91.0485009,13.5837266 91.0508806,13.5294137 C91.0508806,13.1502037 90.7434306,12.8428441 90.3660694,12.8428441 L88.9813528,12.8428441 C88.6039917,12.8428441 88.2981306,13.1502037 88.2981306,13.5294137 L88.2981306,24.5584366 C88.2981306,24.9376466 88.6055806,25.2458046 88.9829417,25.2458046 L90.4407472,25.2458046 C90.8181083,25.2458046 91.1239694,24.9356507 91.1239694,24.5564407 L91.1239694,17.8348441 C91.1239694,16.2010478 92.117025,15.1029356 93.5986639,15.1029356 C95.5371083,15.1029356 95.8270806,16.630553 95.8270806,17.540657 L95.8270806,24.5700125 C95.8270806,24.9492225 96.1329417,25.2565821 96.5103028,25.2565821 L97.9931333,25.2565821 C98.3704944,25.2565821 98.6763556,24.9476258 98.6763556,24.5684158 L98.6763556,17.810894 C98.6763556,16.215817 99.6853,15.1021372 101.127217,15.1021372 C103.066853,15.1021372 103.355633,16.6309522 103.355633,17.5410561 L103.355633,24.5704116 C103.355633,24.9496216 103.661494,25.2569813 104.038856,25.2569813 L105.496661,25.2569813 C105.874022,25.2569813 106.179883,24.9480249 106.179883,24.568815 L106.179883,17.2919751 C106.179883,13.9868607 103.999133,12.5087401 101.838244,12.5087401 L101.838244,12.4955676 Z M111.693328,17.5606154 C111.649005,17.5604672 111.607116,17.5402268 111.579325,17.5055301 C111.554866,17.4760396 111.545204,17.4369112 111.553108,17.3993514 C111.805742,16.241763 112.792442,15.0761913 114.430586,15.0761913 C116.037747,15.0761913 117.131697,15.9423867 117.355731,17.3953597 C117.363675,17.4472516 117.33865,17.4871684 117.323953,17.5031351 C117.29538,17.5331386 117.256038,17.5503902 117.214717,17.5510353 L111.693328,17.5510353 L111.693328,17.5606154 Z M114.406356,12.4831933 C111.498689,12.4831933 108.491717,14.9277006 108.491717,19.01758 C108.491717,20.9918669 109.135217,22.6751601 110.3531,23.8858378 C111.481211,25.007501 113.022433,25.6222204 114.698711,25.6222204 C117.185322,25.6222204 119.203211,24.312948 120.096961,22.1215135 C120.168461,21.9418877 120.164489,21.7423035 120.085044,21.5666694 C120.0056,21.3910353 119.8626,21.2633015 119.68385,21.1994345 L118.46835,20.776316 C118.130711,20.6597588 117.757322,20.8242162 117.619089,21.1527318 C117.094756,22.3909522 116.109644,23.0208399 114.691561,23.0208399 C112.975561,23.0208399 111.6687,21.8568649 111.442283,20.126869 C111.436153,20.0872309 111.447787,20.0468981 111.474061,20.0166985 C111.48995,19.9967401 111.5257,19.9668025 111.581311,19.9668025 L119.64095,19.9668025 C120.002422,19.9668025 120.303119,19.6833929 120.324172,19.3213472 C120.330925,19.2055884 120.336089,19.0778545 120.336089,18.9501206 C120.336089,14.9504532 118.060006,12.4636341 114.397617,12.4636341 L114.406356,12.4831933 Z M129.012217,12.508341 C127.778842,12.508341 126.697603,12.9306611 125.886078,13.7297963 C125.847987,13.7683446 125.790253,13.7794407 125.740694,13.757738 C125.689601,13.7353326 125.656766,13.6844247 125.657278,13.6284075 L125.657278,13.5405904 C125.657278,13.1613805 125.350225,12.8540208 124.972864,12.8540208 L123.542864,12.8540208 C123.165503,12.8540208 122.858053,13.1613805 122.858053,13.5405904 L122.858053,24.5676175 C122.858053,24.9468274 123.163914,25.2553846 123.541275,25.2553846 L125.022914,25.2553846 C125.400275,25.2553846 125.708122,24.9460291 125.708122,24.5668191 L125.708122,18.1294304 C125.708122,16.6892308 126.357581,15.1500374 128.182817,15.1500374 C129.823344,15.1500374 130.655922,16.0613389 130.655922,17.858395 L130.655922,24.5644241 C130.655922,24.9436341 130.961783,25.2509938 131.339144,25.2509938 L132.820783,25.2509938 C133.198144,25.2509938 133.5048,24.9396424 133.5048,24.5604324 L133.5048,17.4636175 C133.5048,14.4059875 131.78165,12.5059459 129.012217,12.5059459 L129.012217,12.508341 Z M140.408522,15.4949189 L142.136439,15.4949189 C142.5138,15.4949189 142.819661,15.1855634 142.819661,14.8067526 L142.819661,13.5397921 C142.819661,13.1605821 142.5138,12.8532225 142.136439,12.8532225 L140.408522,12.8532225 C140.37165,12.8532225 140.336288,12.8385032 140.310215,12.8123027 C140.284142,12.7861021 140.269494,12.7505666 140.269494,12.7135135 L140.269494,9.79399584 C140.269494,9.41478586 139.96125,9.10662786 139.584286,9.10662786 L138.297286,9.10662786 C137.919925,9.10662786 137.614064,9.41478586 137.614064,9.79399584 L137.614064,11.3028524 C137.614064,12.0093805 137.345144,12.8528233 136.070061,12.8528233 L135.85,12.8528233 C135.472639,12.8528233 135.166778,13.160183 135.166778,13.5393929 L135.166778,14.8047568 C135.166778,15.1839667 135.473831,15.4913264 135.85,15.4913264 L137.283972,15.4913264 C137.361431,15.4913264 137.423,15.5512017 137.423,15.6310353 L137.423,21.7263368 C137.423,23.9776466 138.787458,25.374736 140.982111,25.374736 C141.593833,25.374736 142.069706,25.2869189 142.298903,25.235027 C142.608736,25.1631767 142.826414,24.8877505 142.826414,24.5644241 L142.826414,23.3912682 C142.826159,23.1960923 142.74349,23.0101945 142.598966,22.8798053 C142.454442,22.7494162 142.261642,22.6867869 142.068514,22.7074927 C141.913597,22.7234595 141.763447,22.7326403 141.645869,22.7326403 C140.648842,22.7326403 140.275453,22.3654054 140.275453,21.3794595 L140.275453,15.6314345 C140.275453,15.5547942 140.339008,15.4925239 140.414481,15.4925239 L140.408522,15.4949189 Z"/>
      <g transform="translate(0 17.963)">
        <mask id="d" fill="white">
          <use xlink:href="#c"/>
        </mask>
        <path fill="#FFFFFF" fill-rule="nonzero" d="M20.6261611,3.39173389 L1.58888889,3.39173389 C0.711027778,3.39173389 0,2.67722245 0,1.79506029 C0,0.912898129 0.711027778,0.198386694 1.58888889,0.198386694 L20.6261611,0.198386694 C21.5040222,0.198386694 22.21505,0.912898129 22.21505,1.79506029 C22.21505,2.67722245 21.5040222,3.39173389 20.6261611,3.39173389" mask="url(#d)"/>
        <g>
          <mask id="f" fill="white">
            <use xlink:href="#e"/>
          </mask>
          <path fill="#FFFFFF" fill-rule="nonzero" d="M16.5443056,13.1725572 C14.99355,13.1725572 13.4618611,12.9410395 11.9921389,12.4831933 C11.1540574,12.222214 10.6851198,11.327993 10.9446639,10.4857547 C11.2044472,9.63951767 12.0966083,9.16849896 12.9327611,9.4319501 C14.0974167,9.79519335 15.3121222,9.97881081 16.5443056,9.97881081 C21.9358028,9.97881081 26.6170667,6.50205405 28.1936417,1.32483992 C28.3168644,0.91996301 28.5952526,0.580947928 28.967442,0.382522626 C29.3396315,0.184097324 29.7750669,0.142551752 30.1777667,0.267043659 C31.0167,0.522511435 31.4886,1.41664865 31.2319944,2.25889397 C29.2442944,8.78569647 23.3415722,13.1725572 16.5443056,13.1725572" mask="url(#f)"/>
        </g>
      </g>
      <path fill="#FFFFFF" fill-rule="nonzero" d="M31.4997222 13.2424116L12.4632444 13.2424116C11.5853833 13.2424116 10.8743556 12.5279002 10.8743556 11.645738 10.8743556 10.7635759 11.5853833 10.0490644 12.4632444 10.0490644L31.4997222 10.0490644C32.3775833 10.0490644 33.0886111 10.7635759 33.0886111 11.645738 33.0886111 12.5279002 32.3775833 13.2424116 31.4997222 13.2424116M3.37638889 13.2428108C2.872441 13.2428805 2.39834008 13.0027066 2.09868563 12.5955416 1.79903117 12.1883766 1.70935715 11.6625034 1.85701389 11.1783119 3.84511111 4.65190852 9.74783333.268241164 16.5443056.268241164 18.0962528.268241164 19.6279417.499758836 21.0964722.958004158 21.4990288 1.08332785 21.8355494 1.36422866 22.0319927 1.73890274 22.2284359 2.11357682 22.2687076 2.55132793 22.1439472 2.955842 22.0196082 3.36060967 21.7401138 3.69902946 21.3671326 3.89643115 20.9941514 4.09383285 20.5583373 4.13399277 20.15585 4.0080499 18.9919889 3.64879834 17.7764889 3.46518087 16.5443056 3.46518087 11.154 3.46518087 6.47194167 6.94193763 4.89536667 12.1191518 4.69081034 12.7898525 4.0748595 13.248048 3.37678611 13.2487983M27.5640444 5.56121414C27.5640444 6.44303262 26.8526747 7.15788773 25.9751556 7.15788773 25.0976365 7.15788773 24.3862667 6.44303262 24.3862667 5.56121414 24.3862667 4.67939566 25.0976365 3.96454054 25.9751556 3.96454054 26.8526747 3.96454054 27.5640444 4.67939566 27.5640444 5.56121414M8.70194722 25.8445572C8.70194722 26.7263757 7.99057744 27.4412308 7.11305833 27.4412308 6.23553923 27.4412308 5.52416944 26.7263757 5.52416944 25.8445572 5.52416944 24.9627387 6.23553923 24.2478836 7.11305833 24.2478836 7.99057744 24.2478836 8.70194722 24.9627387 8.70194722 25.8445572"/>
    </g>
  </g>
</svg>
