<svg xmlns="http://www.w3.org/2000/svg" width="160" height="20" viewBox="0 0 160 20" xmlns:xlink="http://www.w3.org/1999/xlink">
  <defs>
    <rect id="a" width="160" height="50"/>
  </defs>
  <g fill="none" fill-rule="evenodd" transform="translate(0 -15)">
    <mask id="b" fill="white">
      <use xlink:href="#a"/>
    </mask>
    <g fill="#FFFFFF" transform="translate(0 15)" mask="url(#b)">
      <path d="M14.8484848,14.5 C15.1948052,14.9545455 15.4112554,15.5454545 15.4112554,16.1818182 C15.4112554,17.0454545 15.1082251,17.7727273 14.5454545,18.3636364 C13.982684,18.9545455 13.2900433,19.2727273 12.4675325,19.2727273 C11.5584416,19.2727273 10.9090909,18.9545455 10.4329004,18.3636364 L6.01731602,12.5909091 L6.01731602,15.7727273 C6.01731602,16.6818182 5.84415584,17.4090909 5.54112554,17.9090909 C4.97835498,18.8181818 4.1991342,19.2727273 3.16017316,19.2727273 C2.20779221,19.2727273 1.47186147,18.9545455 0.952380952,18.2727273 C0.476190476,17.6363636 0.216450216,16.8181818 0.216450216,15.7727273 L0.216450216,3.95454545 C0.216450216,3 0.476190476,2.18181818 0.952380952,1.54545455 C1.47186147,0.863636364 2.20779221,0.545454545 3.11688312,0.545454545 C3.98268398,0.545454545 4.71861472,0.863636364 5.32467532,1.54545455 C5.67099567,1.90909091 5.84415584,2.27272727 5.93073593,2.68181818 C5.97402597,2.90909091 6.01731602,3.36363636 6.01731602,4 L6.01731602,6.95454545 L9.30735931,1.95454545 C9.91341991,1 10.7359307,0.545454545 11.6883117,0.545454545 C12.4675325,0.545454545 13.1601732,0.863636364 13.7662338,1.45454545 C14.3722944,2.04545455 14.6320346,2.77272727 14.6320346,3.59090909 C14.6320346,4.18181818 14.4588745,4.72727273 14.1558442,5.22727273 L11.2554113,9.68181818 L14.8484848,14.5 L14.8484848,14.5 Z M19.3939394,0.545454545 C18.5281385,0.545454545 17.7922078,0.863636364 17.2294372,1.54545455 C16.7532468,2.13636364 16.4935065,3.04545455 16.4935065,4.31818182 L16.4935065,15.7727273 C16.4935065,16.9090909 16.7532468,17.7272727 17.2294372,18.2727273 C17.7922078,18.9090909 18.5281385,19.2727273 19.3939394,19.2727273 C20.3030303,19.2727273 21.038961,18.9090909 21.5584416,18.2272727 C22.034632,17.5909091 22.2943723,16.7727273 22.2943723,15.7727273 L22.2943723,4.31818182 C22.2943723,3.04545455 22.034632,2.13636364 21.5584416,1.5 C20.952381,0.863636364 20.2597403,0.545454545 19.3939394,0.545454545 L19.3939394,0.545454545 Z M32.6839827,6.27272727 C33.6796537,6.27272727 34.5021645,6.63636364 35.1515152,7.40909091 C35.8441558,8.22727273 36.3203463,8.68181818 36.4935065,8.77272727 C36.9264069,9 37.3593074,9.13636364 37.8354978,9.13636364 C38.3982684,9.13636364 38.961039,8.95454545 39.4372294,8.63636364 C40.3030303,8.04545455 40.7359307,7.18181818 40.7359307,6.13636364 C40.7359307,4.86363636 40.04329,3.63636364 38.6147186,2.45454545 C36.7965368,0.954545455 34.8484848,0.181818182 32.6839827,0.181818182 C30.1731602,0.181818182 28.0519481,1.09090909 26.3203463,2.81818182 C24.3290043,4.77272727 23.3333333,7.18181818 23.3333333,9.95454545 C23.3333333,11.8181818 23.8095238,13.5454545 24.7619048,15.1363636 C25.7142857,16.7272727 27.012987,17.9090909 28.6147186,18.7272727 C29.8701299,19.3636364 31.2554113,19.6818182 32.6839827,19.6818182 C35.021645,19.6818182 37.0562771,18.8636364 38.8311688,17.2272727 C40.0865801,16.0909091 40.7359307,14.9545455 40.7359307,13.8181818 C40.7359307,13 40.4329004,12.2727273 39.8701299,11.6818182 C39.3073593,11.0909091 38.6147186,10.8181818 37.7922078,10.8181818 C37.0995671,10.8181818 36.5367965,11 36.1038961,11.4090909 C35.6709957,11.8181818 35.2813853,12.2727273 34.8484848,12.6818182 C34.1558442,13.2272727 33.4199134,13.5454545 32.6406926,13.5454545 C31.6883117,13.5454545 30.9090909,13.1818182 30.2597403,12.5 C29.6103896,11.8181818 29.2640693,10.9545455 29.2640693,9.95454545 C29.2640693,8.95454545 29.5670996,8.09090909 30.2597403,7.40909091 C30.9090909,6.63636364 31.7316017,6.27272727 32.6839827,6.27272727 L32.6839827,6.27272727 Z M56.4502165,14.5 L52.8138528,9.68181818 L55.7575758,5.18181818 C56.0606061,4.72727273 56.2337662,4.18181818 56.2337662,3.54545455 C56.2337662,2.72727273 55.9307359,2 55.3679654,1.40909091 C54.7619048,0.818181818 54.1125541,0.5 53.2900433,0.5 C52.2943723,0.5 51.5151515,0.954545455 50.9090909,1.90909091 L47.6190476,6.90909091 L47.6190476,3.95454545 C47.6190476,3.31818182 47.5757576,2.86363636 47.5324675,2.63636364 C47.4458874,2.27272727 47.2294372,1.86363636 46.9264069,1.5 C46.3636364,0.818181818 45.6277056,0.5 44.7186147,0.5 C43.8095238,0.5 43.0735931,0.818181818 42.5541126,1.5 C42.034632,2.13636364 41.8181818,2.95454545 41.8181818,3.90909091 L41.8181818,15.7727273 C41.8181818,16.8181818 42.0779221,17.6363636 42.5541126,18.2727273 C43.0735931,18.9545455 43.8095238,19.2727273 44.7619048,19.2727273 C45.8008658,19.2727273 46.6233766,18.8181818 47.1428571,17.9090909 C47.4458874,17.4090909 47.5757576,16.6818182 47.5757576,15.7727273 L47.5757576,12.5909091 L51.991342,18.3636364 C52.4675325,18.9545455 53.1168831,19.2727273 54.025974,19.2727273 C54.8484848,19.2727273 55.5411255,18.9545455 56.1038961,18.3636364 C56.6666667,17.7727273 56.969697,17.0454545 56.969697,16.1818182 C56.969697,15.5454545 56.7965368,14.9545455 56.4502165,14.5 L56.4502165,14.5 Z"/>
      <g transform="translate(58.009)">
        <path d="M11.4718615 9.18181818C12.6406926 10.2272727 13.2467532 11.6363636 13.2467532 13.5 13.2467532 15.5 12.5974026 17.0909091 11.2554113 18.2272727 10.04329 19.2727273 8.44155844 19.8181818 6.45021645 19.8181818 4.45887446 19.8181818 2.85714286 19.2727273 1.55844156 18.1818182.519480519 17.3181818 0 16.2727273 0 15.0909091 0 14.3181818.25974026 13.6363636.779220779 13.1363636 1.2987013 12.5909091 1.9047619 12.3636364 2.64069264 12.3181818 3.29004329 12.3181818 3.98268398 12.5909091 4.71861472 13.2272727 5.62770563 13.9545455 6.23376623 14.3636364 6.58008658 14.3636364 7.0995671 14.3636364 7.31601732 14.0909091 7.31601732 13.5454545 7.31601732 13.2272727 7.18614719 13 6.88311688 12.7727273 6.70995671 12.6818182 5.84415584 12.3181818 4.28571429 11.7272727 1.68831169 10.7727273.38961039 9 .38961039 6.40909091.38961039 4.45454545 1.08225108 2.90909091 2.42424242 1.77272727 3.63636364.772727273 5.10822511.318181818 6.88311688.318181818 8.3982684.318181818 9.74025974.681818182 10.8658009 1.45454545 11.991342 2.22727273 12.5541126 3.18181818 12.5541126 4.40909091 12.5541126 5.13636364 12.3376623 5.72727273 11.9047619 6.22727273 11.4718615 6.72727273 10.9090909 6.95454545 10.2597403 6.95454545 9.56709957 6.95454545 8.74458874 6.59090909 7.87878788 5.86363636 7.35930736 5.40909091 6.92640693 5.18181818 6.66666667 5.18181818 6.19047619 5.18181818 5.97402597 5.40909091 5.97402597 5.90909091 5.97402597 6.36363636 6.58008658 6.77272727 7.70562771 7.18181818 9.30735931 7.77272727 10.5627706 8.40909091 11.4718615 9.18181818L11.4718615 9.18181818zM28.4848485 3.68181818C28.4848485 3.13636364 28.3549784 2.63636364 28.0519481 2.18181818 27.7489177 1.68181818 27.4025974 1.36363636 26.9264069 1.18181818 26.4935065 1 25.5844156.909090909 24.1558442.909090909L18.3116883.909090909C16.6666667.909090909 15.5844156 1 15.1515152 1.22727273 14.7186147 1.40909091 14.3290043 1.77272727 14.0692641 2.27272727 13.8095238 2.77272727 13.6363636 3.27272727 13.6363636 3.77272727 13.6363636 4.63636364 13.9393939 5.36363636 14.5454545 5.86363636 15.1082251 6.36363636 15.8008658 6.59090909 16.6666667 6.59090909L18.1818182 6.59090909 18.1818182 15.8636364C18.1818182 16.9090909 18.3549784 17.7272727 18.7012987 18.2272727 19.2640693 19.0909091 20.04329 19.5 21.0822511 19.5 22.1212121 19.5 22.9004329 19.0454545 23.4632035 18.1363636 23.8095238 17.5909091 23.9393939 16.8181818 23.9393939 15.8181818L23.9393939 6.54545455 25.2813853 6.54545455C26.3203463 6.54545455 27.0562771 6.31818182 27.4891775 5.86363636 28.1818182 5.22727273 28.4848485 4.5 28.4848485 3.68181818L28.4848485 3.68181818zM37.6623377 2.59090909C37.0995671 1.36363636 36.1904762.727272727 34.9350649.727272727 33.6796537.727272727 32.8138528 1.31818182 32.2510823 2.54545455L26.7532468 14.8636364C26.4935065 15.4090909 26.4069264 15.9545455 26.4069264 16.4545455 26.4069264 17.0909091 26.5800866 17.6818182 26.9264069 18.1818182 27.4891775 19.0454545 28.2683983 19.5 29.3073593 19.5 30.1298701 19.5 30.8658009 19.1818182 31.4285714 18.5 31.7316017 18.1818182 31.991342 17.6363636 32.2943723 16.9545455L37.6623377 16.9545455C38.0519481 17.7727273 38.3982684 18.4090909 38.7878788 18.7727273 39.3073593 19.2727273 39.9134199 19.5 40.6493506 19.5 41.5584416 19.5 42.2943723 19.1363636 42.9004329 18.4090909 43.3333333 17.8636364 43.5497835 17.2272727 43.5497835 16.5 43.5497835 16 43.4199134 15.5 43.2034632 15.0454545L37.6623377 2.59090909 37.6623377 2.59090909zM56.3636364 12.2272727C57.6190476 10.7272727 58.2683983 9.18181818 58.2683983 7.5 58.2683983 6.59090909 58.0952381 5.72727273 57.7056277 4.81818182 57.2294372 3.63636364 56.4502165 2.68181818 55.4112554 1.95454545 54.3722944 1.22727273 53.2467532.863636364 52.034632.863636364L48.3549784.863636364C45.974026.863636364 44.7619048 2.04545455 44.7619048 4.36363636L44.7619048 15.7272727C44.7619048 16.8181818 44.978355 17.6818182 45.4545455 18.3181818 45.974026 19.0454545 46.7099567 19.4545455 47.7056277 19.4545455 48.5281385 19.4545455 49.2207792 19.1363636 49.7402597 18.5454545 50.2597403 17.9545455 50.5627706 17.2272727 50.5627706 16.3636364L50.5627706 13.8636364 52.987013 18.0454545C53.5497835 19 54.3290043 19.4545455 55.3679654 19.4545455 56.1904762 19.4545455 56.8831169 19.1818182 57.4458874 18.5909091 58.008658 18.0454545 58.3116883 17.3181818 58.3116883 16.4545455 58.3116883 15.7727273 58.1385281 15.1363636 57.7489177 14.5L56.3636364 12.2272727 56.3636364 12.2272727zM72.034632 1.13636364C71.6017316.954545455 70.6926407.863636364 69.2640693.863636364L63.4199134.863636364C61.7748918.863636364 60.7359307.954545455 60.2597403 1.18181818 59.8268398 1.36363636 59.4372294 1.72727273 59.1774892 2.22727273 58.9177489 2.72727273 58.7445887 3.22727273 58.7445887 3.72727273 58.7445887 4.59090909 59.047619 5.31818182 59.6536797 5.81818182 60.2164502 6.31818182 60.9090909 6.54545455 61.7748918 6.54545455L63.2900433 6.54545455 63.2900433 15.8181818C63.2900433 16.8636364 63.4632035 17.6818182 63.8095238 18.1818182 64.3722944 19.0454545 65.1515152 19.4545455 66.1904762 19.4545455 67.2294372 19.4545455 68.008658 19 68.5714286 18.0909091 68.9177489 17.5454545 69.047619 16.7727273 69.047619 15.7727273L69.047619 6.59090909 70.3896104 6.59090909C71.4285714 6.59090909 72.1645022 6.36363636 72.6406926 5.90909091 73.2900433 5.27272727 73.5930736 4.54545455 73.5930736 3.72727273 73.5930736 3.18181818 73.4632035 2.68181818 73.1601732 2.22727273 72.8571429 1.68181818 72.4675325 1.31818182 72.034632 1.13636364L72.034632 1.13636364zM83.3333333 6.59090909C84.2857143 6.59090909 85.021645 6.36363636 85.5844156 5.90909091 86.1904762 5.40909091 86.4935065 4.63636364 86.4935065 3.68181818 86.4935065 2.77272727 86.1471861 2.04545455 85.4545455 1.5 85.0649351 1.18181818 84.5454545 1 83.9393939.909090909 83.7662338.909090909 83.2467532.863636364 82.2943723.863636364L78.8311688.863636364C77.9220779.863636364 77.3160173.909090909 77.012987.954545455 76.3636364 1.09090909 75.8441558 1.36363636 75.4545455 1.81818182 75.1082251 2.22727273 74.8484848 2.72727273 74.7619048 3.31818182 74.7186147 3.59090909 74.6753247 4.18181818 74.6753247 5L74.6753247 15.0454545C74.6753247 16.1363636 74.7619048 16.9545455 74.8917749 17.4545455 75.1515152 18.2272727 75.6709957 18.7727273 76.4069264 19.0909091 76.7965368 19.2727273 77.5324675 19.3636364 78.6147186 19.3636364L83.1168831 19.3636364C84.2424242 19.3636364 85.021645 19.1363636 85.5411255 18.7272727 86.1904762 18.1818182 86.4935065 17.4545455 86.4935065 16.5454545 86.4935065 15.6818182 86.1904762 14.9545455 85.5411255 14.3636364 85.021645 13.9090909 84.1991342 13.6363636 83.1168831 13.6363636L80.4761905 13.6363636 80.4761905 12.2272727 82.5541126 12.2272727C84.2424242 12.2272727 85.1082251 11.5 85.1082251 10 85.1082251 9.31818182 84.8917749 8.77272727 84.4155844 8.36363636 83.982684 8 83.4199134 7.81818182 82.7705628 7.81818182L80.4761905 7.81818182 80.4761905 6.54545455 83.3333333 6.54545455 83.3333333 6.59090909zM100.519481 14.5454545L99.1341991 12.2272727C100.38961 10.7272727 101.038961 9.18181818 101.038961 7.5 101.038961 6.59090909 100.865801 5.72727273 100.47619 4.81818182 100 3.63636364 99.2207792 2.68181818 98.1818182 1.95454545 97.1428571 1.22727273 96.017316.863636364 94.8051948.863636364L91.1255411.863636364C88.7445887.863636364 87.5324675 2.04545455 87.5324675 4.36363636L87.5324675 15.7272727C87.5324675 16.8181818 87.7489177 17.6818182 88.2251082 18.3181818 88.7445887 19.0454545 89.4805195 19.4545455 90.4761905 19.4545455 91.2987013 19.4545455 91.9480519 19.1363636 92.5108225 18.5454545 93.030303 17.9545455 93.3333333 17.2272727 93.3333333 16.3636364L93.3333333 13.8636364 95.7575758 18.0454545C96.3203463 19 97.0995671 19.4545455 98.1385281 19.4545455 98.961039 19.4545455 99.6536797 19.1818182 100.21645 18.5909091 100.779221 18.0454545 101.082251 17.3181818 101.082251 16.4545455 101.082251 15.8181818 100.865801 15.1818182 100.519481 14.5454545L100.519481 14.5454545z"/>
      </g>
    </g>
  </g>
</svg>
